<svg width="65" height="64" viewBox="0 0 65 64" fill="none" xmlns="http://www.w3.org/2000/svg">
    <path
        d="M31.9494 5.71759C39.1053 0.486591 50.3366 -1.91729 57.8898 6.68536C67.3313 17.4387 61.6661 32.7448 48.9445 46.4041L31.8508 62.0975L15.1535 46.4041C2.43204 32.7449 -3.23305 17.4387 6.20818 6.68536C13.7614 -1.91733 24.7935 0.486583 31.9494 5.71759ZM51.9191 12.6014C43.9682 0.685967 29.7561 14.6348 37.1105 18.8006C42.9944 22.133 44.9959 17.4126 45.2609 14.6356C46.8843 15.6046 49.4541 18.6655 46.7512 23.16C44.0479 27.6548 38.4694 26.9704 36.0178 26.0662C39.1187 34.5911 34.7251 39.3702 32.1408 40.6942C26.1775 36.2767 27.1384 28.843 28.3644 25.6785C24.548 26.996 21.1426 26.2921 20.215 25.6785C13.9341 20.7187 16.8022 16.2502 19.0217 14.6356C19.2867 17.4126 21.2874 22.1327 27.1711 18.8006C34.5261 14.635 20.3135 0.68584 12.3625 12.6014C4.41212 24.5168 16.0404 37.9824 32.1408 51.6414C48.2414 37.9823 59.8699 24.5168 51.9191 12.6014Z"
        fill="#CCA656" />
</svg>