<svg width="64" height="64" viewBox="0 0 64 64" fill="none" xmlns="http://www.w3.org/2000/svg">
    <path
        d="M43.193 51.9795C37.2956 55.2287 33.2737 61.347 32 64C30.7263 61.347 26.7044 55.2287 20.807 51.9795C25.3721 48.737 30.0387 35.3909 20.807 27.7421C16.4657 24.1452 10.3398 24.5685 7.26259 28.8592C5.06829 31.9188 7.66869 38.5478 12.2516 37.2078C14.0438 36.6837 15.2612 35.1443 14.6525 32.131C17.1774 33.5285 21.091 37.4371 16.5462 41.8915C14.258 43.8676 8.36274 46.3132 3.08748 40.2866C-3.5066 32.7533 1.29524 22.8618 9.64774 18.5384C18.0002 14.2149 26.3866 12.6428 32 -2.79753e-06C37.6135 12.6428 45.9998 14.2149 54.3523 18.5384C62.7048 22.8618 67.5066 32.7533 60.9125 40.2866C55.6373 46.3132 49.742 43.8676 47.4538 41.8915C42.909 37.4371 46.8226 33.5285 49.3475 32.131C48.7388 35.1443 49.9562 36.6837 51.7484 37.2078C56.3313 38.5478 59.6238 31.7515 57.4295 28.6919C54.3523 24.4012 47.5343 24.1452 43.193 27.7421C33.9613 35.3909 38.6279 48.737 43.193 51.9795Z"
        fill="#cca656" />
</svg>