<svg xmlns="http://www.w3.org/2000/svg" style="display: none;">
    <defs>
        <symbol viewBox="0 0 25 24" id="menu">
            <rect x="6.25" y="5.75" width="5" height="5" rx="1.3" fill="inherit" />
            <rect x="13.75" y="5.75" width="5" height="5" rx="1.3" fill="inherit" />
            <rect x="6.25" y="13.25" width="5" height="5" rx="1.3" fill="inherit" />
            <rect x="13.75" y="13.25" width="5" height="5" rx="1.3" fill="inherit" />
        </symbol>

        <symbol id="stars" viewBox="0 0 24 24">
            <path
                d="M13.0166 10.0262C13.1449 9.65497 13.6885 9.65497 13.8168 10.0262L14.5693 12.2054C14.7349 12.6844 15.0139 13.1196 15.3842 13.4766C15.7546 13.8335 16.206 14.1024 16.7029 14.2619L18.9613 14.9875C19.3462 15.1112 19.3462 15.6355 18.9613 15.7592L16.7017 16.4849C16.205 16.6446 15.7537 16.9137 15.3835 17.2708C15.0134 17.628 14.7346 18.0634 14.5693 18.5425L13.8168 20.7205C13.7892 20.8018 13.7356 20.8726 13.6637 20.9228C13.5919 20.973 13.5054 21 13.4167 21C13.328 21 13.2415 20.973 13.1697 20.9228C13.0978 20.8726 13.0443 20.8018 13.0166 20.7205L12.2642 18.5414C12.0987 18.0625 11.8198 17.6273 11.4497 17.2704C11.0795 16.9134 10.6283 16.6445 10.1317 16.4849L7.87214 15.7592C7.78784 15.7326 7.71444 15.6809 7.66239 15.6116C7.61035 15.5423 7.58233 15.4589 7.58233 15.3734C7.58233 15.2878 7.61035 15.2044 7.66239 15.1351C7.71444 15.0658 7.78784 15.0142 7.87214 14.9875L10.1317 14.2619C10.6283 14.1023 11.0795 13.8333 11.4497 13.4764C11.8198 13.1194 12.0987 12.6843 12.2642 12.2054L13.0166 10.0262ZM8.51023 4.28982C8.52696 4.2411 8.55919 4.19871 8.60233 4.16866C8.64547 4.13861 8.69733 4.12243 8.75054 4.12243C8.80376 4.12243 8.85562 4.13861 8.89876 4.16866C8.9419 4.19871 8.97412 4.2411 8.99085 4.28982L9.4423 5.59708C9.64411 6.17983 10.1177 6.63658 10.722 6.83121L12.0775 7.26658C12.128 7.28272 12.172 7.31379 12.2032 7.35539C12.2343 7.397 12.2511 7.44701 12.2511 7.49833C12.2511 7.54965 12.2343 7.59967 12.2032 7.64127C12.172 7.68288 12.128 7.71395 12.0775 7.73008L10.722 8.16546C10.4238 8.26091 10.1528 8.42218 9.93066 8.63643C9.70849 8.85069 9.54127 9.11201 9.4423 9.39959L8.99085 10.7068C8.97412 10.7556 8.9419 10.798 8.89876 10.828C8.85562 10.8581 8.80376 10.8742 8.75054 10.8742C8.69733 10.8742 8.64547 10.8581 8.60233 10.828C8.55919 10.798 8.52696 10.7556 8.51023 10.7068L8.05878 9.39959C7.95982 9.11201 7.79259 8.85069 7.57042 8.63643C7.34826 8.42218 7.07728 8.26091 6.77909 8.16546L5.42357 7.73008C5.37305 7.71395 5.32909 7.68288 5.29793 7.64127C5.26677 7.59967 5.25 7.54965 5.25 7.49833C5.25 7.44701 5.26677 7.397 5.29793 7.35539C5.32909 7.31379 5.37305 7.28272 5.42357 7.26658L6.77909 6.83121C7.07728 6.73576 7.34826 6.57449 7.57042 6.36024C7.79259 6.14598 7.95982 5.88466 8.05878 5.59708L8.51023 4.28982ZM16.7565 3.10969C16.768 3.07766 16.7896 3.04988 16.8183 3.03022C16.8469 3.01056 16.8812 3 16.9163 3C16.9515 3 16.9858 3.01056 17.0144 3.03022C17.0431 3.04988 17.0646 3.07766 17.0761 3.10969L17.3771 3.98044C17.5113 4.3697 17.8274 4.67457 18.231 4.80395L19.1339 5.0942C19.1671 5.1053 19.1959 5.12612 19.2163 5.15374C19.2367 5.18136 19.2477 5.21442 19.2477 5.24832C19.2477 5.28223 19.2367 5.31529 19.2163 5.34291C19.1959 5.37053 19.1671 5.39134 19.1339 5.40245L18.231 5.6927C18.0323 5.75683 17.8517 5.86459 17.7035 6.0075C17.5554 6.1504 17.4436 6.32455 17.3771 6.51621L17.0761 7.38696C17.0646 7.41899 17.0431 7.44677 17.0144 7.46643C16.9858 7.48609 16.9515 7.49665 16.9163 7.49665C16.8812 7.49665 16.8469 7.48609 16.8183 7.46643C16.7896 7.44677 16.768 7.41899 16.7565 7.38696L16.4555 6.51621C16.3891 6.32455 16.2773 6.1504 16.1291 6.0075C15.9809 5.86459 15.8004 5.75683 15.6016 5.6927L14.6999 5.40245C14.6667 5.39134 14.6379 5.37053 14.6175 5.34291C14.5971 5.31529 14.5862 5.28223 14.5862 5.24832C14.5862 5.21442 14.5971 5.18136 14.6175 5.15374C14.6379 5.12612 14.6667 5.1053 14.6999 5.0942L15.6028 4.80395C16.0064 4.67457 16.3226 4.3697 16.4567 3.98044L16.7565 3.10969Z"
                fill="inherit" />
        </symbol>

        <symbol id="search" viewBox="0 0 24 24">
            <path fill-rule="evenodd" clip-rule="evenodd"
                d="M14.0714 15.0456C12.8333 16.035 11.2633 16.5127 9.68394 16.3806C8.1046 16.2485 6.63578 15.5167 5.57916 14.3353C4.52254 13.154 3.95833 11.613 4.0024 10.0286C4.04648 8.4443 4.69549 6.93699 5.81615 5.81626C6.93682 4.69553 8.44405 4.04648 10.0283 4.0024C11.6125 3.95832 13.1535 4.52257 14.3348 5.57925C15.516 6.63593 16.2478 8.10483 16.3799 9.68427C16.512 11.2637 16.0343 12.8338 15.045 14.072L19.7807 18.8071C19.8484 18.8701 19.9027 18.9462 19.9404 19.0307C19.978 19.1152 19.9983 19.2064 19.9999 19.2989C20.0015 19.3914 19.9845 19.4833 19.9499 19.5691C19.9152 19.6549 19.8636 19.7328 19.7982 19.7982C19.7328 19.8636 19.6549 19.9152 19.5691 19.9499C19.4833 19.9845 19.3915 20.0015 19.299 19.9999C19.2065 19.9983 19.1153 19.978 19.0308 19.9404C18.9463 19.9027 18.8702 19.8484 18.8071 19.7807L14.0714 15.0456ZM6.79237 13.6109C6.11823 12.9366 5.65909 12.0777 5.47297 11.1425C5.28684 10.2074 5.38209 9.23809 5.74668 8.35708C6.11126 7.47607 6.72882 6.72292 7.52129 6.19281C8.31377 5.6627 9.2456 5.37942 10.199 5.37878C11.1524 5.37814 12.0847 5.66016 12.8778 6.18921C13.671 6.71825 14.2896 7.47057 14.6554 8.35109C15.0211 9.2316 15.1177 10.2008 14.9328 11.1362C14.748 12.0716 14.29 12.9311 13.6168 13.6063L13.6122 13.6109L13.6076 13.6146C12.7029 14.5171 11.4771 15.0237 10.1992 15.023C8.92135 15.0223 7.69602 14.5144 6.79237 13.6109Z"
                fill="inherit" />
        </symbol>

        <symbol viewBox="0 0 24 24" fill="none" id="globe">
            <g opacity="0.2">
                <path
                    d="M4 12C4 16.4184 7.5816 20 12 20C16.4184 20 20 16.4184 20 12C20 7.5816 16.4184 4 12 4C7.5816 4 4 7.5816 4 12Z"
                    stroke="inherit" stroke-width="1.2" stroke-linecap="round" stroke-linejoin="round" />
                <path
                    d="M12.796 4.03906C12.796 4.03906 15.196 7.19906 15.196 11.9991C15.196 16.7991 12.796 19.9591 12.796 19.9591M11.196 19.9591C11.196 19.9591 8.796 16.7991 8.796 11.9991C8.796 7.19906 11.196 4.03906 11.196 4.03906M4.5 14.7991H19.492M4.5 9.19906H19.492"
                    stroke="inherit" stroke-width="1.2" stroke-linecap="round" stroke-linejoin="round" />
            </g>
        </symbol>

        <symbol viewBox="0 0 24 24" id="phone">
            <path
                d="M5.77711 2.29748C5.49422 2.3796 5.29346 2.49822 4.7733 2.8906C4.05238 3.42896 3.44097 4.09508 3.18546 4.60608C2.82956 5.34519 3.00295 7.77242 3.5596 9.80727C4.06151 11.6414 4.93756 13.5029 6.00525 15.0267C8.0585 17.9558 10.8692 20.0819 14.0814 21.1222C15.3589 21.5419 16.9285 21.7974 17.8137 21.7427C18.1422 21.7244 18.2335 21.697 18.5711 21.5237C19.0639 21.2864 19.5658 20.9123 20.0769 20.4013C20.9438 19.5435 21.1172 19.1056 20.9347 18.3026C20.8251 17.8646 20.5058 17.1984 20.3141 17.0159C19.9582 16.6966 19.0092 16.2586 17.6312 15.8115C16.4996 15.4373 16.1802 15.3643 15.8974 15.4282C15.5141 15.5103 15.1034 15.7841 14.1179 16.651L13.6616 17.0524L13.4061 16.9156C12.4479 16.3955 11.0152 15.2366 9.98399 14.169C9.01669 13.1561 7.91249 11.5045 7.42884 10.3456C7.32846 10.0993 7.22808 9.86202 7.21895 9.8164C7.2007 9.75252 7.2737 9.66127 7.6296 9.3419C8.58778 8.48416 9.05319 7.92754 9.10794 7.5443C9.13532 7.35267 8.98018 6.36718 8.78855 5.46382C8.46915 4.00383 8.14976 3.18259 7.81211 2.93622C7.03644 2.37048 6.32465 2.14235 5.77711 2.29748Z"
                fill="inherit" />
        </symbol>

        <symbol viewBox="0 0 24 24" id="email">
            <path
                d="M4 20C3.45 20 2.97933 19.8043 2.588 19.413C2.19667 19.0217 2.00067 18.5507 2 18V6C2 5.45 2.196 4.97933 2.588 4.588C2.98 4.19667 3.45067 4.00067 4 4H20C20.55 4 21.021 4.196 21.413 4.588C21.805 4.98 22.0007 5.45067 22 6V18C22 18.55 21.8043 19.021 21.413 19.413C21.0217 19.805 20.5507 20.0007 20 20H4ZM12 13L20 8V6L12 11L4 6V8L12 13Z"
                fill="inherit" />
        </symbol>

        <symbol viewBox="0 0 24 24" id="whatsapp">
            <path
                d="M13 2C18.523 2 23 6.477 23 12C23 17.523 18.523 22 13 22C11.2328 22.003 9.49659 21.5353 7.97001 20.645L3.00402 22L4.35601 17.032C3.46497 15.5049 2.99692 13.768 3.00002 12C3.00002 6.477 7.47701 2 13 2ZM9.59201 7.3L9.39201 7.308C9.2627 7.31691 9.13636 7.35087 9.02001 7.408C8.91159 7.46951 8.81257 7.54629 8.72601 7.636C8.60601 7.749 8.53801 7.847 8.46501 7.942C8.09513 8.4229 7.89598 9.01331 7.89901 9.61999C7.90101 10.11 8.02901 10.587 8.22901 11.033C8.63801 11.935 9.31101 12.89 10.199 13.775C10.413 13.988 10.623 14.202 10.849 14.401C11.9524 15.3724 13.2673 16.073 14.689 16.447L15.257 16.534C15.442 16.544 15.627 16.53 15.813 16.521C16.1042 16.5056 16.3885 16.4268 16.646 16.29C16.7769 16.2223 16.9046 16.1489 17.029 16.07C17.029 16.07 17.0713 16.0413 17.154 15.98C17.289 15.88 17.372 15.809 17.484 15.692C17.568 15.6053 17.638 15.5047 17.694 15.39C17.772 15.227 17.85 14.916 17.882 14.657C17.906 14.459 17.899 14.351 17.896 14.284C17.892 14.177 17.803 14.066 17.706 14.019L17.124 13.758C17.124 13.758 16.254 13.379 15.722 13.137C15.6663 13.1127 15.6067 13.0989 15.546 13.096C15.4776 13.0888 15.4084 13.0965 15.3432 13.1184C15.278 13.1403 15.2182 13.176 15.168 13.223C15.163 13.221 15.096 13.278 14.373 14.154C14.3315 14.2098 14.2743 14.2519 14.2088 14.275C14.1433 14.2982 14.0723 14.3013 14.005 14.284C13.9398 14.2666 13.876 14.2446 13.814 14.218C13.69 14.166 13.647 14.146 13.562 14.11C12.9879 13.8599 12.4564 13.5215 11.987 13.107C11.861 12.997 11.744 12.877 11.624 12.761C11.2306 12.3842 10.8878 11.958 10.604 11.493L10.545 11.398C10.5033 11.3338 10.469 11.265 10.443 11.193C10.405 11.046 10.504 10.928 10.504 10.928C10.504 10.928 10.747 10.662 10.86 10.518C10.97 10.378 11.063 10.242 11.123 10.145C11.241 9.95499 11.278 9.75999 11.216 9.60899C10.936 8.92499 10.6467 8.24466 10.348 7.568C10.289 7.434 10.114 7.338 9.95501 7.319C9.90101 7.31233 9.84701 7.307 9.79301 7.303C9.65874 7.29529 9.5241 7.29663 9.39001 7.307L9.59201 7.3Z"
                fill="inherit" />
        </symbol>

        <symbol viewBox="0 0 24 24" id="telegram">
            <path fill-rule="evenodd" clip-rule="evenodd"
                d="M19.9283 4.12314C20.1742 4.01411 20.4434 3.9765 20.7078 4.01424C20.9722 4.05198 21.2221 4.16368 21.4316 4.33772C21.6411 4.51177 21.8025 4.74178 21.899 5.00384C21.9955 5.26589 22.0235 5.5504 21.9802 5.82775L19.7234 20.2498C19.5044 21.6409 18.0556 22.4387 16.8446 21.7458C15.8316 21.166 14.327 20.2728 12.9737 19.3409C12.297 18.8744 10.2243 17.3805 10.479 16.3175C10.6979 15.4085 14.1807 11.993 16.1709 9.96241C16.952 9.16462 16.5958 8.7044 15.6734 9.43824C13.3827 11.2603 9.70483 14.031 8.48884 14.811C7.41614 15.4987 6.8569 15.6161 6.1882 15.4987C4.96823 15.2848 3.83682 14.9536 2.91338 14.55C1.66554 14.0048 1.72624 12.1975 2.91238 11.6712L19.9283 4.12314Z"
                fill="inherit" />
        </symbol>
    </defs>
</svg>