<svg xmlns="http://www.w3.org/2000/svg" style="display: none;">
    <defs>
        <symbol viewBox="0 0 25 24" id="menu">
            <rect x="6.25" y="5.75" width="5" height="5" rx="1.3" fill="inherit" />
            <rect x="13.75" y="5.75" width="5" height="5" rx="1.3" fill="inherit" />
            <rect x="6.25" y="13.25" width="5" height="5" rx="1.3" fill="inherit" />
            <rect x="13.75" y="13.25" width="5" height="5" rx="1.3" fill="inherit" />
        </symbol>

        <symbol id="x" viewBox="0 0 25 24">
            <path
                d="M6.9 19L5.5 17.6L11.1 12L5.5 6.4L6.9 5L12.5 10.6L18.1 5L19.5 6.4L13.9 12L19.5 17.6L18.1 19L12.5 13.4L6.9 19Z"
                fill="inherit" />
        </symbol>

        <symbol id="outlined-x" viewBox="0 0 24 24">
            <rect width="24" height="24" rx="12" transform="matrix(-1 0 0 1 24 0)" fill="inherit" />
            <path d="M16 8L8 16" stroke="inherit" stroke-width="1.5" stroke-linecap="round" stroke-linejoin="round" />
            <path d="M16 16L8 8" stroke="inherit" stroke-width="1.5" stroke-linecap="round" stroke-linejoin="round" />
        </symbol>

        <symbol id="stars" viewBox="0 0 24 24">
            <path
                d="M13.0166 10.0262C13.1449 9.65497 13.6885 9.65497 13.8168 10.0262L14.5693 12.2054C14.7349 12.6844 15.0139 13.1196 15.3842 13.4766C15.7546 13.8335 16.206 14.1024 16.7029 14.2619L18.9613 14.9875C19.3462 15.1112 19.3462 15.6355 18.9613 15.7592L16.7017 16.4849C16.205 16.6446 15.7537 16.9137 15.3835 17.2708C15.0134 17.628 14.7346 18.0634 14.5693 18.5425L13.8168 20.7205C13.7892 20.8018 13.7356 20.8726 13.6637 20.9228C13.5919 20.973 13.5054 21 13.4167 21C13.328 21 13.2415 20.973 13.1697 20.9228C13.0978 20.8726 13.0443 20.8018 13.0166 20.7205L12.2642 18.5414C12.0987 18.0625 11.8198 17.6273 11.4497 17.2704C11.0795 16.9134 10.6283 16.6445 10.1317 16.4849L7.87214 15.7592C7.78784 15.7326 7.71444 15.6809 7.66239 15.6116C7.61035 15.5423 7.58233 15.4589 7.58233 15.3734C7.58233 15.2878 7.61035 15.2044 7.66239 15.1351C7.71444 15.0658 7.78784 15.0142 7.87214 14.9875L10.1317 14.2619C10.6283 14.1023 11.0795 13.8333 11.4497 13.4764C11.8198 13.1194 12.0987 12.6843 12.2642 12.2054L13.0166 10.0262ZM8.51023 4.28982C8.52696 4.2411 8.55919 4.19871 8.60233 4.16866C8.64547 4.13861 8.69733 4.12243 8.75054 4.12243C8.80376 4.12243 8.85562 4.13861 8.89876 4.16866C8.9419 4.19871 8.97412 4.2411 8.99085 4.28982L9.4423 5.59708C9.64411 6.17983 10.1177 6.63658 10.722 6.83121L12.0775 7.26658C12.128 7.28272 12.172 7.31379 12.2032 7.35539C12.2343 7.397 12.2511 7.44701 12.2511 7.49833C12.2511 7.54965 12.2343 7.59967 12.2032 7.64127C12.172 7.68288 12.128 7.71395 12.0775 7.73008L10.722 8.16546C10.4238 8.26091 10.1528 8.42218 9.93066 8.63643C9.70849 8.85069 9.54127 9.11201 9.4423 9.39959L8.99085 10.7068C8.97412 10.7556 8.9419 10.798 8.89876 10.828C8.85562 10.8581 8.80376 10.8742 8.75054 10.8742C8.69733 10.8742 8.64547 10.8581 8.60233 10.828C8.55919 10.798 8.52696 10.7556 8.51023 10.7068L8.05878 9.39959C7.95982 9.11201 7.79259 8.85069 7.57042 8.63643C7.34826 8.42218 7.07728 8.26091 6.77909 8.16546L5.42357 7.73008C5.37305 7.71395 5.32909 7.68288 5.29793 7.64127C5.26677 7.59967 5.25 7.54965 5.25 7.49833C5.25 7.44701 5.26677 7.397 5.29793 7.35539C5.32909 7.31379 5.37305 7.28272 5.42357 7.26658L6.77909 6.83121C7.07728 6.73576 7.34826 6.57449 7.57042 6.36024C7.79259 6.14598 7.95982 5.88466 8.05878 5.59708L8.51023 4.28982ZM16.7565 3.10969C16.768 3.07766 16.7896 3.04988 16.8183 3.03022C16.8469 3.01056 16.8812 3 16.9163 3C16.9515 3 16.9858 3.01056 17.0144 3.03022C17.0431 3.04988 17.0646 3.07766 17.0761 3.10969L17.3771 3.98044C17.5113 4.3697 17.8274 4.67457 18.231 4.80395L19.1339 5.0942C19.1671 5.1053 19.1959 5.12612 19.2163 5.15374C19.2367 5.18136 19.2477 5.21442 19.2477 5.24832C19.2477 5.28223 19.2367 5.31529 19.2163 5.34291C19.1959 5.37053 19.1671 5.39134 19.1339 5.40245L18.231 5.6927C18.0323 5.75683 17.8517 5.86459 17.7035 6.0075C17.5554 6.1504 17.4436 6.32455 17.3771 6.51621L17.0761 7.38696C17.0646 7.41899 17.0431 7.44677 17.0144 7.46643C16.9858 7.48609 16.9515 7.49665 16.9163 7.49665C16.8812 7.49665 16.8469 7.48609 16.8183 7.46643C16.7896 7.44677 16.768 7.41899 16.7565 7.38696L16.4555 6.51621C16.3891 6.32455 16.2773 6.1504 16.1291 6.0075C15.9809 5.86459 15.8004 5.75683 15.6016 5.6927L14.6999 5.40245C14.6667 5.39134 14.6379 5.37053 14.6175 5.34291C14.5971 5.31529 14.5862 5.28223 14.5862 5.24832C14.5862 5.21442 14.5971 5.18136 14.6175 5.15374C14.6379 5.12612 14.6667 5.1053 14.6999 5.0942L15.6028 4.80395C16.0064 4.67457 16.3226 4.3697 16.4567 3.98044L16.7565 3.10969Z"
                fill="inherit" />
        </symbol>

        <symbol id="search" viewBox="0 0 24 24">
            <path fill-rule="evenodd" clip-rule="evenodd"
                d="M14.0714 15.0456C12.8333 16.035 11.2633 16.5127 9.68394 16.3806C8.1046 16.2485 6.63578 15.5167 5.57916 14.3353C4.52254 13.154 3.95833 11.613 4.0024 10.0286C4.04648 8.4443 4.69549 6.93699 5.81615 5.81626C6.93682 4.69553 8.44405 4.04648 10.0283 4.0024C11.6125 3.95832 13.1535 4.52257 14.3348 5.57925C15.516 6.63593 16.2478 8.10483 16.3799 9.68427C16.512 11.2637 16.0343 12.8338 15.045 14.072L19.7807 18.8071C19.8484 18.8701 19.9027 18.9462 19.9404 19.0307C19.978 19.1152 19.9983 19.2064 19.9999 19.2989C20.0015 19.3914 19.9845 19.4833 19.9499 19.5691C19.9152 19.6549 19.8636 19.7328 19.7982 19.7982C19.7328 19.8636 19.6549 19.9152 19.5691 19.9499C19.4833 19.9845 19.3915 20.0015 19.299 19.9999C19.2065 19.9983 19.1153 19.978 19.0308 19.9404C18.9463 19.9027 18.8702 19.8484 18.8071 19.7807L14.0714 15.0456ZM6.79237 13.6109C6.11823 12.9366 5.65909 12.0777 5.47297 11.1425C5.28684 10.2074 5.38209 9.23809 5.74668 8.35708C6.11126 7.47607 6.72882 6.72292 7.52129 6.19281C8.31377 5.6627 9.2456 5.37942 10.199 5.37878C11.1524 5.37814 12.0847 5.66016 12.8778 6.18921C13.671 6.71825 14.2896 7.47057 14.6554 8.35109C15.0211 9.2316 15.1177 10.2008 14.9328 11.1362C14.748 12.0716 14.29 12.9311 13.6168 13.6063L13.6122 13.6109L13.6076 13.6146C12.7029 14.5171 11.4771 15.0237 10.1992 15.023C8.92135 15.0223 7.69602 14.5144 6.79237 13.6109Z"
                fill="inherit" />
        </symbol>

        <symbol viewBox="0 0 24 24" fill="none" id="globe">
            <g opacity="0.2">
                <path
                    d="M4 12C4 16.4184 7.5816 20 12 20C16.4184 20 20 16.4184 20 12C20 7.5816 16.4184 4 12 4C7.5816 4 4 7.5816 4 12Z"
                    stroke="inherit" stroke-width="1.2" stroke-linecap="round" stroke-linejoin="round" />
                <path
                    d="M12.796 4.03906C12.796 4.03906 15.196 7.19906 15.196 11.9991C15.196 16.7991 12.796 19.9591 12.796 19.9591M11.196 19.9591C11.196 19.9591 8.796 16.7991 8.796 11.9991C8.796 7.19906 11.196 4.03906 11.196 4.03906M4.5 14.7991H19.492M4.5 9.19906H19.492"
                    stroke="inherit" stroke-width="1.2" stroke-linecap="round" stroke-linejoin="round" />
            </g>
        </symbol>

        <symbol viewBox="0 0 24 24" id="phone">
            <path
                d="M5.77711 2.29748C5.49422 2.3796 5.29346 2.49822 4.7733 2.8906C4.05238 3.42896 3.44097 4.09508 3.18546 4.60608C2.82956 5.34519 3.00295 7.77242 3.5596 9.80727C4.06151 11.6414 4.93756 13.5029 6.00525 15.0267C8.0585 17.9558 10.8692 20.0819 14.0814 21.1222C15.3589 21.5419 16.9285 21.7974 17.8137 21.7427C18.1422 21.7244 18.2335 21.697 18.5711 21.5237C19.0639 21.2864 19.5658 20.9123 20.0769 20.4013C20.9438 19.5435 21.1172 19.1056 20.9347 18.3026C20.8251 17.8646 20.5058 17.1984 20.3141 17.0159C19.9582 16.6966 19.0092 16.2586 17.6312 15.8115C16.4996 15.4373 16.1802 15.3643 15.8974 15.4282C15.5141 15.5103 15.1034 15.7841 14.1179 16.651L13.6616 17.0524L13.4061 16.9156C12.4479 16.3955 11.0152 15.2366 9.98399 14.169C9.01669 13.1561 7.91249 11.5045 7.42884 10.3456C7.32846 10.0993 7.22808 9.86202 7.21895 9.8164C7.2007 9.75252 7.2737 9.66127 7.6296 9.3419C8.58778 8.48416 9.05319 7.92754 9.10794 7.5443C9.13532 7.35267 8.98018 6.36718 8.78855 5.46382C8.46915 4.00383 8.14976 3.18259 7.81211 2.93622C7.03644 2.37048 6.32465 2.14235 5.77711 2.29748Z"
                fill="inherit" />
        </symbol>

        <symbol viewBox="0 0 24 24" id="email">
            <path
                d="M4 20C3.45 20 2.97933 19.8043 2.588 19.413C2.19667 19.0217 2.00067 18.5507 2 18V6C2 5.45 2.196 4.97933 2.588 4.588C2.98 4.19667 3.45067 4.00067 4 4H20C20.55 4 21.021 4.196 21.413 4.588C21.805 4.98 22.0007 5.45067 22 6V18C22 18.55 21.8043 19.021 21.413 19.413C21.0217 19.805 20.5507 20.0007 20 20H4ZM12 13L20 8V6L12 11L4 6V8L12 13Z"
                fill="inherit" />
        </symbol>

        <symbol viewBox="0 0 24 24" id="whatsapp">
            <path
                d="M13 2C18.523 2 23 6.477 23 12C23 17.523 18.523 22 13 22C11.2328 22.003 9.49659 21.5353 7.97001 20.645L3.00402 22L4.35601 17.032C3.46497 15.5049 2.99692 13.768 3.00002 12C3.00002 6.477 7.47701 2 13 2ZM9.59201 7.3L9.39201 7.308C9.2627 7.31691 9.13636 7.35087 9.02001 7.408C8.91159 7.46951 8.81257 7.54629 8.72601 7.636C8.60601 7.749 8.53801 7.847 8.46501 7.942C8.09513 8.4229 7.89598 9.01331 7.89901 9.61999C7.90101 10.11 8.02901 10.587 8.22901 11.033C8.63801 11.935 9.31101 12.89 10.199 13.775C10.413 13.988 10.623 14.202 10.849 14.401C11.9524 15.3724 13.2673 16.073 14.689 16.447L15.257 16.534C15.442 16.544 15.627 16.53 15.813 16.521C16.1042 16.5056 16.3885 16.4268 16.646 16.29C16.7769 16.2223 16.9046 16.1489 17.029 16.07C17.029 16.07 17.0713 16.0413 17.154 15.98C17.289 15.88 17.372 15.809 17.484 15.692C17.568 15.6053 17.638 15.5047 17.694 15.39C17.772 15.227 17.85 14.916 17.882 14.657C17.906 14.459 17.899 14.351 17.896 14.284C17.892 14.177 17.803 14.066 17.706 14.019L17.124 13.758C17.124 13.758 16.254 13.379 15.722 13.137C15.6663 13.1127 15.6067 13.0989 15.546 13.096C15.4776 13.0888 15.4084 13.0965 15.3432 13.1184C15.278 13.1403 15.2182 13.176 15.168 13.223C15.163 13.221 15.096 13.278 14.373 14.154C14.3315 14.2098 14.2743 14.2519 14.2088 14.275C14.1433 14.2982 14.0723 14.3013 14.005 14.284C13.9398 14.2666 13.876 14.2446 13.814 14.218C13.69 14.166 13.647 14.146 13.562 14.11C12.9879 13.8599 12.4564 13.5215 11.987 13.107C11.861 12.997 11.744 12.877 11.624 12.761C11.2306 12.3842 10.8878 11.958 10.604 11.493L10.545 11.398C10.5033 11.3338 10.469 11.265 10.443 11.193C10.405 11.046 10.504 10.928 10.504 10.928C10.504 10.928 10.747 10.662 10.86 10.518C10.97 10.378 11.063 10.242 11.123 10.145C11.241 9.95499 11.278 9.75999 11.216 9.60899C10.936 8.92499 10.6467 8.24466 10.348 7.568C10.289 7.434 10.114 7.338 9.95501 7.319C9.90101 7.31233 9.84701 7.307 9.79301 7.303C9.65874 7.29529 9.5241 7.29663 9.39001 7.307L9.59201 7.3Z"
                fill="inherit" />
        </symbol>

        <symbol id="whatsapp-small" viewBox="0 0 24 24">
            <path
                d="M12 4C16.4184 4 20 7.5816 20 12C20 16.4184 16.4184 20 12 20C10.5862 20.0024 9.19727 19.6283 7.97601 18.916L4.00321 20L5.08481 16.0256C4.37198 14.8039 3.99753 13.4144 4.00001 12C4.00001 7.5816 7.58161 4 12 4ZM9.27361 8.24L9.11361 8.2464C9.01016 8.25352 8.90909 8.2807 8.81601 8.3264C8.72927 8.37561 8.65006 8.43703 8.58081 8.5088C8.48481 8.5992 8.43041 8.6776 8.37201 8.7536C8.07611 9.13832 7.91679 9.61065 7.91921 10.096C7.92081 10.488 8.02321 10.8696 8.18321 11.2264C8.51041 11.948 9.04881 12.712 9.75921 13.42C9.93041 13.5904 10.0984 13.7616 10.2792 13.9208C11.162 14.6979 12.2138 15.2584 13.3512 15.5576L13.8056 15.6272C13.9536 15.6352 14.1016 15.624 14.2504 15.6168C14.4834 15.6045 14.7108 15.5414 14.9168 15.432C15.0215 15.3779 15.1237 15.3191 15.2232 15.256C15.2232 15.256 15.2571 15.2331 15.3232 15.184C15.4312 15.104 15.4976 15.0472 15.5872 14.9536C15.6544 14.8843 15.7104 14.8037 15.7552 14.712C15.8176 14.5816 15.88 14.3328 15.9056 14.1256C15.9248 13.9672 15.9192 13.8808 15.9168 13.8272C15.9136 13.7416 15.8424 13.6528 15.7648 13.6152L15.2992 13.4064C15.2992 13.4064 14.6032 13.1032 14.1776 12.9096C14.1331 12.8902 14.0853 12.8791 14.0368 12.8768C13.9821 12.8711 13.9267 12.8772 13.8746 12.8947C13.8224 12.9122 13.7746 12.9408 13.7344 12.9784C13.7304 12.9768 13.6768 13.0224 13.0984 13.7232C13.0652 13.7678 13.0195 13.8015 12.967 13.82C12.9146 13.8386 12.8579 13.8411 12.804 13.8272C12.7519 13.8133 12.7008 13.7957 12.6512 13.7744C12.552 13.7328 12.5176 13.7168 12.4496 13.688C11.9903 13.4879 11.5652 13.2172 11.1896 12.8856C11.0888 12.7976 10.9952 12.7016 10.8992 12.6088C10.5845 12.3074 10.3102 11.9664 10.0832 11.5944L10.036 11.5184C10.0026 11.467 9.97524 11.412 9.95441 11.3544C9.92401 11.2368 10.0032 11.1424 10.0032 11.1424C10.0032 11.1424 10.1976 10.9296 10.288 10.8144C10.376 10.7024 10.4504 10.5936 10.4984 10.516C10.5928 10.364 10.6224 10.208 10.5728 10.0872C10.3488 9.54 10.1173 8.99573 9.87841 8.4544C9.83121 8.3472 9.69121 8.2704 9.56401 8.2552C9.52081 8.24986 9.47761 8.2456 9.43441 8.2424C9.32699 8.23624 9.21928 8.2373 9.11201 8.2456L9.27361 8.24Z"
                fill="inherit" />
        </symbol>


        <symbol viewBox="0 0 24 24" id="telegram">
            <path fill-rule="evenodd" clip-rule="evenodd"
                d="M19.9283 4.12314C20.1742 4.01411 20.4434 3.9765 20.7078 4.01424C20.9722 4.05198 21.2221 4.16368 21.4316 4.33772C21.6411 4.51177 21.8025 4.74178 21.899 5.00384C21.9955 5.26589 22.0235 5.5504 21.9802 5.82775L19.7234 20.2498C19.5044 21.6409 18.0556 22.4387 16.8446 21.7458C15.8316 21.166 14.327 20.2728 12.9737 19.3409C12.297 18.8744 10.2243 17.3805 10.479 16.3175C10.6979 15.4085 14.1807 11.993 16.1709 9.96241C16.952 9.16462 16.5958 8.7044 15.6734 9.43824C13.3827 11.2603 9.70483 14.031 8.48884 14.811C7.41614 15.4987 6.8569 15.6161 6.1882 15.4987C4.96823 15.2848 3.83682 14.9536 2.91338 14.55C1.66554 14.0048 1.72624 12.1975 2.91238 11.6712L19.9283 4.12314Z"
                fill="inherit" />
        </symbol>

        <symbol viewBox="0 0 24 24" id="telegram-small">
            <path fill-rule="evenodd" clip-rule="evenodd"
                d="M18.3427 6.09578C18.5394 6.01097 18.7547 5.98172 18.9662 6.01107C19.1777 6.04043 19.3777 6.12731 19.5453 6.26267C19.7129 6.39804 19.842 6.57694 19.9192 6.78076C19.9964 6.98458 20.0188 7.20587 19.9842 7.42158L18.1787 18.6387C18.0035 19.7207 16.8445 20.3412 15.8757 19.8023C15.0653 19.3514 13.8616 18.6567 12.779 17.9318C12.2376 17.5689 10.5794 16.407 10.7832 15.5802C10.9583 14.8733 13.7446 12.2168 15.3367 10.6374C15.9616 10.0169 15.6766 9.65898 14.9387 10.2297C13.1061 11.6469 10.1639 13.8019 9.19107 14.4085C8.33291 14.9434 7.88552 15.0348 7.35056 14.9434C6.37458 14.7771 5.46945 14.5194 4.7307 14.2055C3.73243 13.7815 3.78099 12.3758 4.72991 11.9665L18.3427 6.09578Z"
                fill="inherit" />
        </symbol>

        <symbol id="up-right-arrow" viewBox="0 0 25 24">
            <path d="M16.594 14.7654L16.62 8.55221M16.62 8.55221L10.4068 8.5782M16.62 8.55221L9.13297 16.0392"
                stroke="inherit" stroke-width="1.5" stroke-linecap="round" stroke-linejoin="round" />
        </symbol>

        <svg id="chevron-right-arrow" viewBox="0 0 24 24">
            <path d="M10 8L14 12L10 16" stroke="inherit" stroke-width="2" stroke-linecap="round"
                stroke-linejoin="round" />
        </svg>


        <symbol id="ornament" viewBox="0 0 64 64">
            <path
                d="M43.193 51.9795C37.2956 55.2287 33.2737 61.347 32 64C30.7263 61.347 26.7044 55.2287 20.807 51.9795C25.3721 48.737 30.0387 35.3909 20.807 27.7421C16.4657 24.1452 10.3398 24.5685 7.26259 28.8592C5.06829 31.9188 7.66869 38.5478 12.2516 37.2078C14.0438 36.6837 15.2612 35.1443 14.6525 32.131C17.1774 33.5285 21.091 37.4371 16.5462 41.8915C14.258 43.8676 8.36274 46.3132 3.08748 40.2866C-3.5066 32.7533 1.29524 22.8618 9.64774 18.5384C18.0002 14.2149 26.3866 12.6428 32 -2.79753e-06C37.6135 12.6428 45.9998 14.2149 54.3523 18.5384C62.7048 22.8618 67.5066 32.7533 60.9125 40.2866C55.6373 46.3132 49.742 43.8676 47.4538 41.8915C42.909 37.4371 46.8226 33.5285 49.3475 32.131C48.7388 35.1443 49.9562 36.6837 51.7484 37.2078C56.3313 38.5478 59.6238 31.7515 57.4295 28.6919C54.3523 24.4012 47.5343 24.1452 43.193 27.7421C33.9613 35.3909 38.6279 48.737 43.193 51.9795Z"
                fill="inherit" />
        </symbol>

        <symbol viewBox="0 0 24 24" id="up-right-curved-arrow">
            <path
                d="M17.6046 16.3094C17.08 15.7848 16.8148 14.483 16.6819 13.3007C16.5079 11.7776 16.5737 10.2311 16.9329 8.74198C17.2023 7.62546 17.6357 6.37883 18.3117 5.70284M18.3117 5.70284C17.6357 6.37883 16.3884 6.81299 15.2726 7.08169C13.7827 7.4402 12.2363 7.50595 10.7146 7.33342C9.53159 7.19978 8.22839 6.9332 7.70513 6.40994M18.3117 5.70284L5.69942 18.3166"
                stroke="inherit" stroke-width="1.5" />
        </symbol>

        <symbol id="left-curved-arrow" viewBox="0 0 24 24">
            <g clip-path="url(#clip0_1_3956)">
                <path
                    d="M8 19C8 18.258 7.267 17.15 6.525 16.22C5.571 15.02 4.431 13.973 3.124 13.174C2.144 12.575 0.955998 12 -2.55504e-06 12M-2.55504e-06 12C0.955998 12 2.145 11.425 3.124 10.826C4.431 10.026 5.571 8.979 6.525 7.781C7.267 6.85 8 5.74 8 5M-2.55504e-06 12L24 12"
                    stroke="inherit" stroke-width="1.6" />
            </g>
            <defs>
                <clipPath id="clip0_1_3956">
                    <rect width="24" height="24" fill="white"
                        transform="matrix(4.37114e-08 -1 -1 -4.37114e-08 24 24)" />
                </clipPath>
            </defs>
        </symbol>

        <symbol id="curved-star" viewBox="0 0 53 53">
            <path
                d="M26.6296 0.804687C26.6296 0.804687 28.0546 14.1054 33.6052 19.656C39.1558 25.2066 52.4565 26.6316 52.4565 26.6316C52.4565 26.6316 39.1558 28.0566 33.6052 33.6072C28.0546 39.1578 26.6296 52.4585 26.6296 52.4585C26.6296 52.4585 25.2046 39.1578 19.654 33.6072C14.1034 28.0566 0.802734 26.6316 0.802734 26.6316C0.802734 26.6316 14.1034 25.2066 19.654 19.656C25.2046 14.1054 26.6296 0.804687 26.6296 0.804687Z"
                fill="inherit" />
        </symbol>

        <symbol id="ornament-heart" viewBox="0 0 65 64">
            <path
                d="M31.9494 5.71759C39.1053 0.486591 50.3366 -1.91729 57.8898 6.68536C67.3313 17.4387 61.6661 32.7448 48.9445 46.4041L31.8508 62.0975L15.1535 46.4041C2.43204 32.7449 -3.23305 17.4387 6.20818 6.68536C13.7614 -1.91733 24.7935 0.486583 31.9494 5.71759ZM51.9191 12.6014C43.9682 0.685967 29.7561 14.6348 37.1105 18.8006C42.9944 22.133 44.9959 17.4126 45.2609 14.6356C46.8843 15.6046 49.4541 18.6655 46.7512 23.16C44.0479 27.6548 38.4694 26.9704 36.0178 26.0662C39.1187 34.5911 34.7251 39.3702 32.1408 40.6942C26.1775 36.2767 27.1384 28.843 28.3644 25.6785C24.548 26.996 21.1426 26.2921 20.215 25.6785C13.9341 20.7187 16.8022 16.2502 19.0217 14.6356C19.2867 17.4126 21.2874 22.1327 27.1711 18.8006C34.5261 14.635 20.3135 0.68584 12.3625 12.6014C4.41212 24.5168 16.0404 37.9824 32.1408 51.6414C48.2414 37.9823 59.8699 24.5168 51.9191 12.6014Z"
                fill="#CCA656" />
        </symbol>

        <symbol id="pin" viewBox="0 0 16 16">
            <path
                d="M8 16C8 16 14 10.314 14 6C14 4.4087 13.3679 2.88258 12.2426 1.75736C11.1174 0.632141 9.5913 0 8 0C6.4087 0 4.88258 0.632141 3.75736 1.75736C2.63214 2.88258 2 4.4087 2 6C2 10.314 8 16 8 16ZM8 9C7.20435 9 6.44129 8.68393 5.87868 8.12132C5.31607 7.55871 5 6.79565 5 6C5 5.20435 5.31607 4.44129 5.87868 3.87868C6.44129 3.31607 7.20435 3 8 3C8.79565 3 9.55871 3.31607 10.1213 3.87868C10.6839 4.44129 11 5.20435 11 6C11 6.79565 10.6839 7.55871 10.1213 8.12132C9.55871 8.68393 8.79565 9 8 9Z"
                fill="inherit" />
        </symbol>

        <symbol id="little-star" viewBox="0 0 16 16">
            <path
                d="M7.51946 1.34708C7.55291 1.24606 7.61735 1.15815 7.70361 1.09584C7.78988 1.03354 7.89359 1 8 1C8.10641 1 8.21012 1.03354 8.29639 1.09584C8.38265 1.15815 8.44709 1.24606 8.48054 1.34708L9.3833 4.0577C9.78686 5.26605 10.7339 6.21314 11.9423 6.6167L14.6529 7.51946C14.7539 7.55291 14.8418 7.61735 14.9042 7.70361C14.9665 7.78988 15 7.89359 15 8C15 8.10641 14.9665 8.21012 14.9042 8.29639C14.8418 8.38265 14.7539 8.44709 14.6529 8.48054L11.9423 9.3833C11.346 9.58121 10.8041 9.91561 10.3599 10.3599C9.91561 10.8041 9.58121 11.346 9.3833 11.9423L8.48054 14.6529C8.44709 14.7539 8.38265 14.8418 8.29639 14.9042C8.21012 14.9665 8.10641 15 8 15C7.89359 15 7.78988 14.9665 7.70361 14.9042C7.61735 14.8418 7.55291 14.7539 7.51946 14.6529L6.6167 11.9423C6.41879 11.346 6.08439 10.8041 5.64013 10.3599C5.19586 9.91561 4.654 9.58121 4.0577 9.3833L1.34708 8.48054C1.24606 8.44709 1.15815 8.38265 1.09584 8.29639C1.03354 8.21012 1 8.10641 1 8C1 7.89359 1.03354 7.78988 1.09584 7.70361C1.15815 7.61735 1.24606 7.55291 1.34708 7.51946L4.0577 6.6167C4.654 6.41879 5.19586 6.08439 5.64013 5.64013C6.08439 5.19586 6.41879 4.654 6.6167 4.0577L7.51946 1.34708Z"
                fill="inherit" />
        </symbol>

        <symbol id="instagram" width="24" height="24">
            <path
                d="M12.8224 4C13.7224 4.0024 14.1791 4.0072 14.5735 4.0184L14.7287 4.024C14.9079 4.0304 15.0847 4.0384 15.2983 4.048C16.1494 4.088 16.7302 4.22239 17.2398 4.41999C17.7678 4.62318 18.2125 4.89838 18.6573 5.34237C19.0642 5.74214 19.379 6.22592 19.5797 6.75993C19.7773 7.26952 19.9117 7.85031 19.9517 8.70229C19.9613 8.91508 19.9692 9.09188 19.9756 9.27187L19.9804 9.42707C19.9924 9.82066 19.9972 10.2774 19.9988 11.1774L19.9996 11.7742V12.8222C20.0016 13.4057 19.9955 13.9892 19.9812 14.5725L19.9764 14.7277C19.97 14.9077 19.962 15.0845 19.9524 15.2973C19.9125 16.1493 19.7765 16.7293 19.5797 17.2397C19.379 17.7737 19.0642 18.2575 18.6573 18.6572C18.2576 19.0642 17.7738 19.379 17.2398 19.5796C16.7302 19.7772 16.1494 19.9116 15.2983 19.9516L14.7287 19.9756L14.5735 19.9804C14.1791 19.9916 13.7224 19.9972 12.8224 19.9988L12.2256 19.9996H11.1785C10.5947 20.0017 10.011 19.9955 9.42738 19.9812L9.27219 19.9764C9.08229 19.9692 8.89243 19.961 8.70262 19.9516C7.85146 19.9116 7.27069 19.7772 6.76032 19.5796C6.22661 19.3789 5.74312 19.0641 5.34359 18.6572C4.93636 18.2575 4.62131 17.7738 4.42043 17.2397C4.22284 16.7301 4.08845 16.1493 4.04845 15.2973L4.02445 14.7277L4.02045 14.5725C4.00571 13.9892 3.99904 13.4057 4.00046 12.8222V11.1774C3.99824 10.5939 4.00411 10.0104 4.01805 9.42707L4.02365 9.27187C4.03005 9.09188 4.03805 8.91508 4.04765 8.70229C4.08765 7.85031 4.22204 7.27032 4.41963 6.75993C4.62098 6.2257 4.93659 5.74191 5.34439 5.34237C5.74369 4.93562 6.22689 4.62084 6.76032 4.41999C7.27069 4.22239 7.85066 4.088 8.70262 4.048C8.91541 4.0384 9.093 4.0304 9.27219 4.024L9.42738 4.0192C10.0107 4.00499 10.5942 3.99885 11.1777 4.0008L12.8224 4ZM12.0001 7.9999C10.9392 7.9999 9.92188 8.42132 9.17177 9.17145C8.42166 9.92158 8.00025 10.939 8.00025 11.9998C8.00025 13.0606 8.42166 14.078 9.17177 14.8282C9.92188 15.5783 10.9392 15.9997 12.0001 15.9997C13.0609 15.9997 14.0782 15.5783 14.8283 14.8282C15.5784 14.078 15.9998 13.0606 15.9998 11.9998C15.9998 10.939 15.5784 9.92158 14.8283 9.17145C14.0782 8.42132 13.0609 7.9999 12.0001 7.9999ZM12.0001 9.59986C12.3152 9.59981 12.6273 9.66184 12.9185 9.7824C13.2097 9.90296 13.4743 10.0797 13.6971 10.3025C13.92 10.5253 14.0968 10.7899 14.2175 11.081C14.3382 11.3722 14.4003 11.6842 14.4003 11.9994C14.4004 12.3146 14.3384 12.6267 14.2178 12.9179C14.0972 13.209 13.9205 13.4736 13.6977 13.6965C13.4749 13.9194 13.2104 14.0963 12.9192 14.2169C12.6281 14.3376 12.316 14.3997 12.0009 14.3997C11.3644 14.3997 10.7539 14.1469 10.3039 13.6968C9.85382 13.2467 9.60097 12.6363 9.60097 11.9998C9.60097 11.3633 9.85382 10.7529 10.3039 10.3028C10.7539 9.85271 11.3644 9.59986 12.0009 9.59986M16.2006 6.79993C15.9354 6.79993 15.6811 6.90529 15.4936 7.09282C15.306 7.28035 15.2007 7.5347 15.2007 7.79991C15.2007 8.06512 15.306 8.31947 15.4936 8.507C15.6811 8.69453 15.9354 8.79988 16.2006 8.79988C16.4658 8.79988 16.7202 8.69453 16.9077 8.507C17.0952 8.31947 17.2006 8.06512 17.2006 7.79991C17.2006 7.5347 17.0952 7.28035 16.9077 7.09282C16.7202 6.90529 16.4658 6.79993 16.2006 6.79993Z"
                fill="inherit" />
        </symbol>

        <symbol id="heart" viewBox="0 0 17 16">
            <path
                d="M8.5 16L7.31 14.7826C2.89 10.7826 0 8.08696 0 4.78261C0 2.08696 2.04 0 4.675 0C6.12 0 7.565 0.695652 8.5 1.82609C9.435 0.695652 10.88 0 12.325 0C14.96 0 17 2.08696 17 4.78261C17 8.08696 14.11 10.7826 9.69 14.7826L8.5 16Z"
                fill="inherit" />
        </symbol>
    </defs>
</svg>