<svg xmlns="http://www.w3.org/2000/svg" style="display: none;">
    <defs>
        <symbol viewBox="0 0 25 24" id="menu">
            <rect x="6.25" y="5.75" width="5" height="5" rx="1.3" fill="inherit" />
            <rect x="13.75" y="5.75" width="5" height="5" rx="1.3" fill="inherit" />
            <rect x="6.25" y="13.25" width="5" height="5" rx="1.3" fill="inherit" />
            <rect x="13.75" y="13.25" width="5" height="5" rx="1.3" fill="inherit" />
        </symbol>

        <symbol id="x" viewBox="0 0 25 24">
            <path
                d="M6.9 19L5.5 17.6L11.1 12L5.5 6.4L6.9 5L12.5 10.6L18.1 5L19.5 6.4L13.9 12L19.5 17.6L18.1 19L12.5 13.4L6.9 19Z"
                fill="inherit" />
        </symbol>

        <symbol id="outlined-x" viewBox="0 0 24 24">
            <rect width="24" height="24" rx="12" transform="matrix(-1 0 0 1 24 0)" fill="inherit" />
            <path d="M16 8L8 16" stroke="inherit" stroke-width="1.5" stroke-linecap="round" stroke-linejoin="round" />
            <path d="M16 16L8 8" stroke="inherit" stroke-width="1.5" stroke-linecap="round" stroke-linejoin="round" />
        </symbol>

        <symbol id="stars" viewBox="0 0 24 24">
            <path
                d="M13.0166 10.0262C13.1449 9.65497 13.6885 9.65497 13.8168 10.0262L14.5693 12.2054C14.7349 12.6844 15.0139 13.1196 15.3842 13.4766C15.7546 13.8335 16.206 14.1024 16.7029 14.2619L18.9613 14.9875C19.3462 15.1112 19.3462 15.6355 18.9613 15.7592L16.7017 16.4849C16.205 16.6446 15.7537 16.9137 15.3835 17.2708C15.0134 17.628 14.7346 18.0634 14.5693 18.5425L13.8168 20.7205C13.7892 20.8018 13.7356 20.8726 13.6637 20.9228C13.5919 20.973 13.5054 21 13.4167 21C13.328 21 13.2415 20.973 13.1697 20.9228C13.0978 20.8726 13.0443 20.8018 13.0166 20.7205L12.2642 18.5414C12.0987 18.0625 11.8198 17.6273 11.4497 17.2704C11.0795 16.9134 10.6283 16.6445 10.1317 16.4849L7.87214 15.7592C7.78784 15.7326 7.71444 15.6809 7.66239 15.6116C7.61035 15.5423 7.58233 15.4589 7.58233 15.3734C7.58233 15.2878 7.61035 15.2044 7.66239 15.1351C7.71444 15.0658 7.78784 15.0142 7.87214 14.9875L10.1317 14.2619C10.6283 14.1023 11.0795 13.8333 11.4497 13.4764C11.8198 13.1194 12.0987 12.6843 12.2642 12.2054L13.0166 10.0262ZM8.51023 4.28982C8.52696 4.2411 8.55919 4.19871 8.60233 4.16866C8.64547 4.13861 8.69733 4.12243 8.75054 4.12243C8.80376 4.12243 8.85562 4.13861 8.89876 4.16866C8.9419 4.19871 8.97412 4.2411 8.99085 4.28982L9.4423 5.59708C9.64411 6.17983 10.1177 6.63658 10.722 6.83121L12.0775 7.26658C12.128 7.28272 12.172 7.31379 12.2032 7.35539C12.2343 7.397 12.2511 7.44701 12.2511 7.49833C12.2511 7.54965 12.2343 7.59967 12.2032 7.64127C12.172 7.68288 12.128 7.71395 12.0775 7.73008L10.722 8.16546C10.4238 8.26091 10.1528 8.42218 9.93066 8.63643C9.70849 8.85069 9.54127 9.11201 9.4423 9.39959L8.99085 10.7068C8.97412 10.7556 8.9419 10.798 8.89876 10.828C8.85562 10.8581 8.80376 10.8742 8.75054 10.8742C8.69733 10.8742 8.64547 10.8581 8.60233 10.828C8.55919 10.798 8.52696 10.7556 8.51023 10.7068L8.05878 9.39959C7.95982 9.11201 7.79259 8.85069 7.57042 8.63643C7.34826 8.42218 7.07728 8.26091 6.77909 8.16546L5.42357 7.73008C5.37305 7.71395 5.32909 7.68288 5.29793 7.64127C5.26677 7.59967 5.25 7.54965 5.25 7.49833C5.25 7.44701 5.26677 7.397 5.29793 7.35539C5.32909 7.31379 5.37305 7.28272 5.42357 7.26658L6.77909 6.83121C7.07728 6.73576 7.34826 6.57449 7.57042 6.36024C7.79259 6.14598 7.95982 5.88466 8.05878 5.59708L8.51023 4.28982ZM16.7565 3.10969C16.768 3.07766 16.7896 3.04988 16.8183 3.03022C16.8469 3.01056 16.8812 3 16.9163 3C16.9515 3 16.9858 3.01056 17.0144 3.03022C17.0431 3.04988 17.0646 3.07766 17.0761 3.10969L17.3771 3.98044C17.5113 4.3697 17.8274 4.67457 18.231 4.80395L19.1339 5.0942C19.1671 5.1053 19.1959 5.12612 19.2163 5.15374C19.2367 5.18136 19.2477 5.21442 19.2477 5.24832C19.2477 5.28223 19.2367 5.31529 19.2163 5.34291C19.1959 5.37053 19.1671 5.39134 19.1339 5.40245L18.231 5.6927C18.0323 5.75683 17.8517 5.86459 17.7035 6.0075C17.5554 6.1504 17.4436 6.32455 17.3771 6.51621L17.0761 7.38696C17.0646 7.41899 17.0431 7.44677 17.0144 7.46643C16.9858 7.48609 16.9515 7.49665 16.9163 7.49665C16.8812 7.49665 16.8469 7.48609 16.8183 7.46643C16.7896 7.44677 16.768 7.41899 16.7565 7.38696L16.4555 6.51621C16.3891 6.32455 16.2773 6.1504 16.1291 6.0075C15.9809 5.86459 15.8004 5.75683 15.6016 5.6927L14.6999 5.40245C14.6667 5.39134 14.6379 5.37053 14.6175 5.34291C14.5971 5.31529 14.5862 5.28223 14.5862 5.24832C14.5862 5.21442 14.5971 5.18136 14.6175 5.15374C14.6379 5.12612 14.6667 5.1053 14.6999 5.0942L15.6028 4.80395C16.0064 4.67457 16.3226 4.3697 16.4567 3.98044L16.7565 3.10969Z"
                fill="inherit" />
        </symbol>

        <symbol id="search" viewBox="0 0 24 24">
            <path fill-rule="evenodd" clip-rule="evenodd"
                d="M14.0714 15.0456C12.8333 16.035 11.2633 16.5127 9.68394 16.3806C8.1046 16.2485 6.63578 15.5167 5.57916 14.3353C4.52254 13.154 3.95833 11.613 4.0024 10.0286C4.04648 8.4443 4.69549 6.93699 5.81615 5.81626C6.93682 4.69553 8.44405 4.04648 10.0283 4.0024C11.6125 3.95832 13.1535 4.52257 14.3348 5.57925C15.516 6.63593 16.2478 8.10483 16.3799 9.68427C16.512 11.2637 16.0343 12.8338 15.045 14.072L19.7807 18.8071C19.8484 18.8701 19.9027 18.9462 19.9404 19.0307C19.978 19.1152 19.9983 19.2064 19.9999 19.2989C20.0015 19.3914 19.9845 19.4833 19.9499 19.5691C19.9152 19.6549 19.8636 19.7328 19.7982 19.7982C19.7328 19.8636 19.6549 19.9152 19.5691 19.9499C19.4833 19.9845 19.3915 20.0015 19.299 19.9999C19.2065 19.9983 19.1153 19.978 19.0308 19.9404C18.9463 19.9027 18.8702 19.8484 18.8071 19.7807L14.0714 15.0456ZM6.79237 13.6109C6.11823 12.9366 5.65909 12.0777 5.47297 11.1425C5.28684 10.2074 5.38209 9.23809 5.74668 8.35708C6.11126 7.47607 6.72882 6.72292 7.52129 6.19281C8.31377 5.6627 9.2456 5.37942 10.199 5.37878C11.1524 5.37814 12.0847 5.66016 12.8778 6.18921C13.671 6.71825 14.2896 7.47057 14.6554 8.35109C15.0211 9.2316 15.1177 10.2008 14.9328 11.1362C14.748 12.0716 14.29 12.9311 13.6168 13.6063L13.6122 13.6109L13.6076 13.6146C12.7029 14.5171 11.4771 15.0237 10.1992 15.023C8.92135 15.0223 7.69602 14.5144 6.79237 13.6109Z"
                fill="inherit" />
        </symbol>

        <symbol viewBox="0 0 24 24" fill="none" id="globe">
            <g opacity="0.2">
                <path
                    d="M4 12C4 16.4184 7.5816 20 12 20C16.4184 20 20 16.4184 20 12C20 7.5816 16.4184 4 12 4C7.5816 4 4 7.5816 4 12Z"
                    stroke="inherit" stroke-width="1.2" stroke-linecap="round" stroke-linejoin="round" />
                <path
                    d="M12.796 4.03906C12.796 4.03906 15.196 7.19906 15.196 11.9991C15.196 16.7991 12.796 19.9591 12.796 19.9591M11.196 19.9591C11.196 19.9591 8.796 16.7991 8.796 11.9991C8.796 7.19906 11.196 4.03906 11.196 4.03906M4.5 14.7991H19.492M4.5 9.19906H19.492"
                    stroke="inherit" stroke-width="1.2" stroke-linecap="round" stroke-linejoin="round" />
            </g>
        </symbol>

        <symbol viewBox="0 0 24 24" id="phone">
            <path
                d="M5.77711 2.29748C5.49422 2.3796 5.29346 2.49822 4.7733 2.8906C4.05238 3.42896 3.44097 4.09508 3.18546 4.60608C2.82956 5.34519 3.00295 7.77242 3.5596 9.80727C4.06151 11.6414 4.93756 13.5029 6.00525 15.0267C8.0585 17.9558 10.8692 20.0819 14.0814 21.1222C15.3589 21.5419 16.9285 21.7974 17.8137 21.7427C18.1422 21.7244 18.2335 21.697 18.5711 21.5237C19.0639 21.2864 19.5658 20.9123 20.0769 20.4013C20.9438 19.5435 21.1172 19.1056 20.9347 18.3026C20.8251 17.8646 20.5058 17.1984 20.3141 17.0159C19.9582 16.6966 19.0092 16.2586 17.6312 15.8115C16.4996 15.4373 16.1802 15.3643 15.8974 15.4282C15.5141 15.5103 15.1034 15.7841 14.1179 16.651L13.6616 17.0524L13.4061 16.9156C12.4479 16.3955 11.0152 15.2366 9.98399 14.169C9.01669 13.1561 7.91249 11.5045 7.42884 10.3456C7.32846 10.0993 7.22808 9.86202 7.21895 9.8164C7.2007 9.75252 7.2737 9.66127 7.6296 9.3419C8.58778 8.48416 9.05319 7.92754 9.10794 7.5443C9.13532 7.35267 8.98018 6.36718 8.78855 5.46382C8.46915 4.00383 8.14976 3.18259 7.81211 2.93622C7.03644 2.37048 6.32465 2.14235 5.77711 2.29748Z"
                fill="inherit" />
        </symbol>

        <symbol id="search-mobile" viewBox="0 0 25 24">
            <circle cx="10.9961" cy="11" r="6.8" stroke="inherit" stroke-width="2.4" fill="none" />
            <path
                d="M20.8469 18.1516C21.3156 18.6203 21.3156 19.3802 20.8469 19.8489C20.3782 20.3176 19.6183 20.3176 19.1496 19.8489L15.998 16.6973L17.6953 15L20.8469 18.1516Z"
                fill="inherit" />
        </symbol>


        <symbol viewBox="0 0 24 24" id="email">
            <path
                d="M4 20C3.45 20 2.97933 19.8043 2.588 19.413C2.19667 19.0217 2.00067 18.5507 2 18V6C2 5.45 2.196 4.97933 2.588 4.588C2.98 4.19667 3.45067 4.00067 4 4H20C20.55 4 21.021 4.196 21.413 4.588C21.805 4.98 22.0007 5.45067 22 6V18C22 18.55 21.8043 19.021 21.413 19.413C21.0217 19.805 20.5507 20.0007 20 20H4ZM12 13L20 8V6L12 11L4 6V8L12 13Z"
                fill="inherit" />
        </symbol>

        <symbol viewBox="0 0 24 24" id="whatsapp">
            <path
                d="M13 2C18.523 2 23 6.477 23 12C23 17.523 18.523 22 13 22C11.2328 22.003 9.49659 21.5353 7.97001 20.645L3.00402 22L4.35601 17.032C3.46497 15.5049 2.99692 13.768 3.00002 12C3.00002 6.477 7.47701 2 13 2ZM9.59201 7.3L9.39201 7.308C9.2627 7.31691 9.13636 7.35087 9.02001 7.408C8.91159 7.46951 8.81257 7.54629 8.72601 7.636C8.60601 7.749 8.53801 7.847 8.46501 7.942C8.09513 8.4229 7.89598 9.01331 7.89901 9.61999C7.90101 10.11 8.02901 10.587 8.22901 11.033C8.63801 11.935 9.31101 12.89 10.199 13.775C10.413 13.988 10.623 14.202 10.849 14.401C11.9524 15.3724 13.2673 16.073 14.689 16.447L15.257 16.534C15.442 16.544 15.627 16.53 15.813 16.521C16.1042 16.5056 16.3885 16.4268 16.646 16.29C16.7769 16.2223 16.9046 16.1489 17.029 16.07C17.029 16.07 17.0713 16.0413 17.154 15.98C17.289 15.88 17.372 15.809 17.484 15.692C17.568 15.6053 17.638 15.5047 17.694 15.39C17.772 15.227 17.85 14.916 17.882 14.657C17.906 14.459 17.899 14.351 17.896 14.284C17.892 14.177 17.803 14.066 17.706 14.019L17.124 13.758C17.124 13.758 16.254 13.379 15.722 13.137C15.6663 13.1127 15.6067 13.0989 15.546 13.096C15.4776 13.0888 15.4084 13.0965 15.3432 13.1184C15.278 13.1403 15.2182 13.176 15.168 13.223C15.163 13.221 15.096 13.278 14.373 14.154C14.3315 14.2098 14.2743 14.2519 14.2088 14.275C14.1433 14.2982 14.0723 14.3013 14.005 14.284C13.9398 14.2666 13.876 14.2446 13.814 14.218C13.69 14.166 13.647 14.146 13.562 14.11C12.9879 13.8599 12.4564 13.5215 11.987 13.107C11.861 12.997 11.744 12.877 11.624 12.761C11.2306 12.3842 10.8878 11.958 10.604 11.493L10.545 11.398C10.5033 11.3338 10.469 11.265 10.443 11.193C10.405 11.046 10.504 10.928 10.504 10.928C10.504 10.928 10.747 10.662 10.86 10.518C10.97 10.378 11.063 10.242 11.123 10.145C11.241 9.95499 11.278 9.75999 11.216 9.60899C10.936 8.92499 10.6467 8.24466 10.348 7.568C10.289 7.434 10.114 7.338 9.95501 7.319C9.90101 7.31233 9.84701 7.307 9.79301 7.303C9.65874 7.29529 9.5241 7.29663 9.39001 7.307L9.59201 7.3Z"
                fill="inherit" />
        </symbol>

        <symbol id="whatsapp-small" viewBox="0 0 24 24">
            <path
                d="M12 4C16.4184 4 20 7.5816 20 12C20 16.4184 16.4184 20 12 20C10.5862 20.0024 9.19727 19.6283 7.97601 18.916L4.00321 20L5.08481 16.0256C4.37198 14.8039 3.99753 13.4144 4.00001 12C4.00001 7.5816 7.58161 4 12 4ZM9.27361 8.24L9.11361 8.2464C9.01016 8.25352 8.90909 8.2807 8.81601 8.3264C8.72927 8.37561 8.65006 8.43703 8.58081 8.5088C8.48481 8.5992 8.43041 8.6776 8.37201 8.7536C8.07611 9.13832 7.91679 9.61065 7.91921 10.096C7.92081 10.488 8.02321 10.8696 8.18321 11.2264C8.51041 11.948 9.04881 12.712 9.75921 13.42C9.93041 13.5904 10.0984 13.7616 10.2792 13.9208C11.162 14.6979 12.2138 15.2584 13.3512 15.5576L13.8056 15.6272C13.9536 15.6352 14.1016 15.624 14.2504 15.6168C14.4834 15.6045 14.7108 15.5414 14.9168 15.432C15.0215 15.3779 15.1237 15.3191 15.2232 15.256C15.2232 15.256 15.2571 15.2331 15.3232 15.184C15.4312 15.104 15.4976 15.0472 15.5872 14.9536C15.6544 14.8843 15.7104 14.8037 15.7552 14.712C15.8176 14.5816 15.88 14.3328 15.9056 14.1256C15.9248 13.9672 15.9192 13.8808 15.9168 13.8272C15.9136 13.7416 15.8424 13.6528 15.7648 13.6152L15.2992 13.4064C15.2992 13.4064 14.6032 13.1032 14.1776 12.9096C14.1331 12.8902 14.0853 12.8791 14.0368 12.8768C13.9821 12.8711 13.9267 12.8772 13.8746 12.8947C13.8224 12.9122 13.7746 12.9408 13.7344 12.9784C13.7304 12.9768 13.6768 13.0224 13.0984 13.7232C13.0652 13.7678 13.0195 13.8015 12.967 13.82C12.9146 13.8386 12.8579 13.8411 12.804 13.8272C12.7519 13.8133 12.7008 13.7957 12.6512 13.7744C12.552 13.7328 12.5176 13.7168 12.4496 13.688C11.9903 13.4879 11.5652 13.2172 11.1896 12.8856C11.0888 12.7976 10.9952 12.7016 10.8992 12.6088C10.5845 12.3074 10.3102 11.9664 10.0832 11.5944L10.036 11.5184C10.0026 11.467 9.97524 11.412 9.95441 11.3544C9.92401 11.2368 10.0032 11.1424 10.0032 11.1424C10.0032 11.1424 10.1976 10.9296 10.288 10.8144C10.376 10.7024 10.4504 10.5936 10.4984 10.516C10.5928 10.364 10.6224 10.208 10.5728 10.0872C10.3488 9.54 10.1173 8.99573 9.87841 8.4544C9.83121 8.3472 9.69121 8.2704 9.56401 8.2552C9.52081 8.24986 9.47761 8.2456 9.43441 8.2424C9.32699 8.23624 9.21928 8.2373 9.11201 8.2456L9.27361 8.24Z"
                fill="inherit" />
        </symbol>


        <symbol viewBox="0 0 24 24" id="telegram">
            <path fill-rule="evenodd" clip-rule="evenodd"
                d="M19.9283 4.12314C20.1742 4.01411 20.4434 3.9765 20.7078 4.01424C20.9722 4.05198 21.2221 4.16368 21.4316 4.33772C21.6411 4.51177 21.8025 4.74178 21.899 5.00384C21.9955 5.26589 22.0235 5.5504 21.9802 5.82775L19.7234 20.2498C19.5044 21.6409 18.0556 22.4387 16.8446 21.7458C15.8316 21.166 14.327 20.2728 12.9737 19.3409C12.297 18.8744 10.2243 17.3805 10.479 16.3175C10.6979 15.4085 14.1807 11.993 16.1709 9.96241C16.952 9.16462 16.5958 8.7044 15.6734 9.43824C13.3827 11.2603 9.70483 14.031 8.48884 14.811C7.41614 15.4987 6.8569 15.6161 6.1882 15.4987C4.96823 15.2848 3.83682 14.9536 2.91338 14.55C1.66554 14.0048 1.72624 12.1975 2.91238 11.6712L19.9283 4.12314Z"
                fill="inherit" />
        </symbol>

        <symbol viewBox="0 0 24 24" id="telegram-small">
            <path fill-rule="evenodd" clip-rule="evenodd"
                d="M18.3427 6.09578C18.5394 6.01097 18.7547 5.98172 18.9662 6.01107C19.1777 6.04043 19.3777 6.12731 19.5453 6.26267C19.7129 6.39804 19.842 6.57694 19.9192 6.78076C19.9964 6.98458 20.0188 7.20587 19.9842 7.42158L18.1787 18.6387C18.0035 19.7207 16.8445 20.3412 15.8757 19.8023C15.0653 19.3514 13.8616 18.6567 12.779 17.9318C12.2376 17.5689 10.5794 16.407 10.7832 15.5802C10.9583 14.8733 13.7446 12.2168 15.3367 10.6374C15.9616 10.0169 15.6766 9.65898 14.9387 10.2297C13.1061 11.6469 10.1639 13.8019 9.19107 14.4085C8.33291 14.9434 7.88552 15.0348 7.35056 14.9434C6.37458 14.7771 5.46945 14.5194 4.7307 14.2055C3.73243 13.7815 3.78099 12.3758 4.72991 11.9665L18.3427 6.09578Z"
                fill="inherit" />
        </symbol>

        <symbol id="up-right-arrow" viewBox="0 0 25 24">
            <path d="M16.594 14.7654L16.62 8.55221M16.62 8.55221L10.4068 8.5782M16.62 8.55221L9.13297 16.0392"
                stroke="inherit" stroke-width="1.5" stroke-linecap="round" stroke-linejoin="round" />
        </symbol>

        <symbol id="chevron-right-arrow" viewBox="0 0 24 24">
            <path d="M10 8L14 12L10 16" stroke="inherit" stroke-width="2" stroke-linecap="round"
                stroke-linejoin="round" />
        </symbol>

        <symbol viewBox="0 0 24 24" fill="none" id="mobile-menu">
            <path d="M19.668 9H3.66797M19.668 15H11.9961" stroke="inherit" stroke-width="2.4" stroke-linecap="round"
                stroke-linejoin="round" />
        </symbol>



        <symbol id="ornament" viewBox="0 0 64 64">
            <path
                d="M43.193 51.9795C37.2956 55.2287 33.2737 61.347 32 64C30.7263 61.347 26.7044 55.2287 20.807 51.9795C25.3721 48.737 30.0387 35.3909 20.807 27.7421C16.4657 24.1452 10.3398 24.5685 7.26259 28.8592C5.06829 31.9188 7.66869 38.5478 12.2516 37.2078C14.0438 36.6837 15.2612 35.1443 14.6525 32.131C17.1774 33.5285 21.091 37.4371 16.5462 41.8915C14.258 43.8676 8.36274 46.3132 3.08748 40.2866C-3.5066 32.7533 1.29524 22.8618 9.64774 18.5384C18.0002 14.2149 26.3866 12.6428 32 -2.79753e-06C37.6135 12.6428 45.9998 14.2149 54.3523 18.5384C62.7048 22.8618 67.5066 32.7533 60.9125 40.2866C55.6373 46.3132 49.742 43.8676 47.4538 41.8915C42.909 37.4371 46.8226 33.5285 49.3475 32.131C48.7388 35.1443 49.9562 36.6837 51.7484 37.2078C56.3313 38.5478 59.6238 31.7515 57.4295 28.6919C54.3523 24.4012 47.5343 24.1452 43.193 27.7421C33.9613 35.3909 38.6279 48.737 43.193 51.9795Z"
                fill="inherit" />
        </symbol>

        <symbol viewBox="0 0 24 24" id="up-right-curved-arrow">
            <path
                d="M17.6046 16.3094C17.08 15.7848 16.8148 14.483 16.6819 13.3007C16.5079 11.7776 16.5737 10.2311 16.9329 8.74198C17.2023 7.62546 17.6357 6.37883 18.3117 5.70284M18.3117 5.70284C17.6357 6.37883 16.3884 6.81299 15.2726 7.08169C13.7827 7.4402 12.2363 7.50595 10.7146 7.33342C9.53159 7.19978 8.22839 6.9332 7.70513 6.40994M18.3117 5.70284L5.69942 18.3166"
                stroke="inherit" stroke-width="1.5" />
        </symbol>

        <symbol id="left-curved-arrow" viewBox="0 0 24 24">
            <g clip-path="url(#clip0_1_3956)">
                <path
                    d="M8 19C8 18.258 7.267 17.15 6.525 16.22C5.571 15.02 4.431 13.973 3.124 13.174C2.144 12.575 0.955998 12 -2.55504e-06 12M-2.55504e-06 12C0.955998 12 2.145 11.425 3.124 10.826C4.431 10.026 5.571 8.979 6.525 7.781C7.267 6.85 8 5.74 8 5M-2.55504e-06 12L24 12"
                    stroke="inherit" stroke-width="1.6" />
            </g>
            <defs>
                <clipPath id="clip0_1_3956">
                    <rect width="24" height="24" fill="white"
                        transform="matrix(4.37114e-08 -1 -1 -4.37114e-08 24 24)" />
                </clipPath>
            </defs>
        </symbol>

        <symbol id="curved-star" viewBox="0 0 53 53">
            <path
                d="M26.6296 0.804687C26.6296 0.804687 28.0546 14.1054 33.6052 19.656C39.1558 25.2066 52.4565 26.6316 52.4565 26.6316C52.4565 26.6316 39.1558 28.0566 33.6052 33.6072C28.0546 39.1578 26.6296 52.4585 26.6296 52.4585C26.6296 52.4585 25.2046 39.1578 19.654 33.6072C14.1034 28.0566 0.802734 26.6316 0.802734 26.6316C0.802734 26.6316 14.1034 25.2066 19.654 19.656C25.2046 14.1054 26.6296 0.804687 26.6296 0.804687Z"
                fill="inherit" />
        </symbol>

        <symbol id="ornament-heart" viewBox="0 0 65 64">
            <path
                d="M31.9494 5.71759C39.1053 0.486591 50.3366 -1.91729 57.8898 6.68536C67.3313 17.4387 61.6661 32.7448 48.9445 46.4041L31.8508 62.0975L15.1535 46.4041C2.43204 32.7449 -3.23305 17.4387 6.20818 6.68536C13.7614 -1.91733 24.7935 0.486583 31.9494 5.71759ZM51.9191 12.6014C43.9682 0.685967 29.7561 14.6348 37.1105 18.8006C42.9944 22.133 44.9959 17.4126 45.2609 14.6356C46.8843 15.6046 49.4541 18.6655 46.7512 23.16C44.0479 27.6548 38.4694 26.9704 36.0178 26.0662C39.1187 34.5911 34.7251 39.3702 32.1408 40.6942C26.1775 36.2767 27.1384 28.843 28.3644 25.6785C24.548 26.996 21.1426 26.2921 20.215 25.6785C13.9341 20.7187 16.8022 16.2502 19.0217 14.6356C19.2867 17.4126 21.2874 22.1327 27.1711 18.8006C34.5261 14.635 20.3135 0.68584 12.3625 12.6014C4.41212 24.5168 16.0404 37.9824 32.1408 51.6414C48.2414 37.9823 59.8699 24.5168 51.9191 12.6014Z"
                fill="#CCA656" />
        </symbol>

        <symbol id="pin" viewBox="0 0 16 16">
            <path
                d="M8 16C8 16 14 10.314 14 6C14 4.4087 13.3679 2.88258 12.2426 1.75736C11.1174 0.632141 9.5913 0 8 0C6.4087 0 4.88258 0.632141 3.75736 1.75736C2.63214 2.88258 2 4.4087 2 6C2 10.314 8 16 8 16ZM8 9C7.20435 9 6.44129 8.68393 5.87868 8.12132C5.31607 7.55871 5 6.79565 5 6C5 5.20435 5.31607 4.44129 5.87868 3.87868C6.44129 3.31607 7.20435 3 8 3C8.79565 3 9.55871 3.31607 10.1213 3.87868C10.6839 4.44129 11 5.20435 11 6C11 6.79565 10.6839 7.55871 10.1213 8.12132C9.55871 8.68393 8.79565 9 8 9Z"
                fill="inherit" />
        </symbol>

        <symbol id="little-star" viewBox="0 0 16 16">
            <path
                d="M7.51946 1.34708C7.55291 1.24606 7.61735 1.15815 7.70361 1.09584C7.78988 1.03354 7.89359 1 8 1C8.10641 1 8.21012 1.03354 8.29639 1.09584C8.38265 1.15815 8.44709 1.24606 8.48054 1.34708L9.3833 4.0577C9.78686 5.26605 10.7339 6.21314 11.9423 6.6167L14.6529 7.51946C14.7539 7.55291 14.8418 7.61735 14.9042 7.70361C14.9665 7.78988 15 7.89359 15 8C15 8.10641 14.9665 8.21012 14.9042 8.29639C14.8418 8.38265 14.7539 8.44709 14.6529 8.48054L11.9423 9.3833C11.346 9.58121 10.8041 9.91561 10.3599 10.3599C9.91561 10.8041 9.58121 11.346 9.3833 11.9423L8.48054 14.6529C8.44709 14.7539 8.38265 14.8418 8.29639 14.9042C8.21012 14.9665 8.10641 15 8 15C7.89359 15 7.78988 14.9665 7.70361 14.9042C7.61735 14.8418 7.55291 14.7539 7.51946 14.6529L6.6167 11.9423C6.41879 11.346 6.08439 10.8041 5.64013 10.3599C5.19586 9.91561 4.654 9.58121 4.0577 9.3833L1.34708 8.48054C1.24606 8.44709 1.15815 8.38265 1.09584 8.29639C1.03354 8.21012 1 8.10641 1 8C1 7.89359 1.03354 7.78988 1.09584 7.70361C1.15815 7.61735 1.24606 7.55291 1.34708 7.51946L4.0577 6.6167C4.654 6.41879 5.19586 6.08439 5.64013 5.64013C6.08439 5.19586 6.41879 4.654 6.6167 4.0577L7.51946 1.34708Z"
                fill="inherit" />
        </symbol>

        <symbol id="instagram" width="24" height="24">
            <path
                d="M12.8224 4C13.7224 4.0024 14.1791 4.0072 14.5735 4.0184L14.7287 4.024C14.9079 4.0304 15.0847 4.0384 15.2983 4.048C16.1494 4.088 16.7302 4.22239 17.2398 4.41999C17.7678 4.62318 18.2125 4.89838 18.6573 5.34237C19.0642 5.74214 19.379 6.22592 19.5797 6.75993C19.7773 7.26952 19.9117 7.85031 19.9517 8.70229C19.9613 8.91508 19.9692 9.09188 19.9756 9.27187L19.9804 9.42707C19.9924 9.82066 19.9972 10.2774 19.9988 11.1774L19.9996 11.7742V12.8222C20.0016 13.4057 19.9955 13.9892 19.9812 14.5725L19.9764 14.7277C19.97 14.9077 19.962 15.0845 19.9524 15.2973C19.9125 16.1493 19.7765 16.7293 19.5797 17.2397C19.379 17.7737 19.0642 18.2575 18.6573 18.6572C18.2576 19.0642 17.7738 19.379 17.2398 19.5796C16.7302 19.7772 16.1494 19.9116 15.2983 19.9516L14.7287 19.9756L14.5735 19.9804C14.1791 19.9916 13.7224 19.9972 12.8224 19.9988L12.2256 19.9996H11.1785C10.5947 20.0017 10.011 19.9955 9.42738 19.9812L9.27219 19.9764C9.08229 19.9692 8.89243 19.961 8.70262 19.9516C7.85146 19.9116 7.27069 19.7772 6.76032 19.5796C6.22661 19.3789 5.74312 19.0641 5.34359 18.6572C4.93636 18.2575 4.62131 17.7738 4.42043 17.2397C4.22284 16.7301 4.08845 16.1493 4.04845 15.2973L4.02445 14.7277L4.02045 14.5725C4.00571 13.9892 3.99904 13.4057 4.00046 12.8222V11.1774C3.99824 10.5939 4.00411 10.0104 4.01805 9.42707L4.02365 9.27187C4.03005 9.09188 4.03805 8.91508 4.04765 8.70229C4.08765 7.85031 4.22204 7.27032 4.41963 6.75993C4.62098 6.2257 4.93659 5.74191 5.34439 5.34237C5.74369 4.93562 6.22689 4.62084 6.76032 4.41999C7.27069 4.22239 7.85066 4.088 8.70262 4.048C8.91541 4.0384 9.093 4.0304 9.27219 4.024L9.42738 4.0192C10.0107 4.00499 10.5942 3.99885 11.1777 4.0008L12.8224 4ZM12.0001 7.9999C10.9392 7.9999 9.92188 8.42132 9.17177 9.17145C8.42166 9.92158 8.00025 10.939 8.00025 11.9998C8.00025 13.0606 8.42166 14.078 9.17177 14.8282C9.92188 15.5783 10.9392 15.9997 12.0001 15.9997C13.0609 15.9997 14.0782 15.5783 14.8283 14.8282C15.5784 14.078 15.9998 13.0606 15.9998 11.9998C15.9998 10.939 15.5784 9.92158 14.8283 9.17145C14.0782 8.42132 13.0609 7.9999 12.0001 7.9999ZM12.0001 9.59986C12.3152 9.59981 12.6273 9.66184 12.9185 9.7824C13.2097 9.90296 13.4743 10.0797 13.6971 10.3025C13.92 10.5253 14.0968 10.7899 14.2175 11.081C14.3382 11.3722 14.4003 11.6842 14.4003 11.9994C14.4004 12.3146 14.3384 12.6267 14.2178 12.9179C14.0972 13.209 13.9205 13.4736 13.6977 13.6965C13.4749 13.9194 13.2104 14.0963 12.9192 14.2169C12.6281 14.3376 12.316 14.3997 12.0009 14.3997C11.3644 14.3997 10.7539 14.1469 10.3039 13.6968C9.85382 13.2467 9.60097 12.6363 9.60097 11.9998C9.60097 11.3633 9.85382 10.7529 10.3039 10.3028C10.7539 9.85271 11.3644 9.59986 12.0009 9.59986M16.2006 6.79993C15.9354 6.79993 15.6811 6.90529 15.4936 7.09282C15.306 7.28035 15.2007 7.5347 15.2007 7.79991C15.2007 8.06512 15.306 8.31947 15.4936 8.507C15.6811 8.69453 15.9354 8.79988 16.2006 8.79988C16.4658 8.79988 16.7202 8.69453 16.9077 8.507C17.0952 8.31947 17.2006 8.06512 17.2006 7.79991C17.2006 7.5347 17.0952 7.28035 16.9077 7.09282C16.7202 6.90529 16.4658 6.79993 16.2006 6.79993Z"
                fill="inherit" />
        </symbol>

        <symbol id="heart" viewBox="0 0 17 16">
            <path
                d="M8.5 16L7.31 14.7826C2.89 10.7826 0 8.08696 0 4.78261C0 2.08696 2.04 0 4.675 0C6.12 0 7.565 0.695652 8.5 1.82609C9.435 0.695652 10.88 0 12.325 0C14.96 0 17 2.08696 17 4.78261C17 8.08696 14.11 10.7826 9.69 14.7826L8.5 16Z"
                fill="inherit" />
        </symbol>

        <symbol id="home" viewBox="0 0 20 20" fill="none">
            <path
                d="M17 18C17.5523 18 18 17.5523 18 17V9.95C18 9.16802 17.5381 8.46786 16.8625 8.07408C14.5904 6.74975 12.4515 4.6651 11.0614 2.48999C10.8699 2.19029 10.5432 2 10.1875 2H9.81248C9.45681 2 9.13014 2.19029 8.93861 2.48999C7.54853 4.6651 5.40964 6.74975 3.13752 8.07408C2.46191 8.46786 2 9.16802 2 9.95V17M13.2857 18C12.7334 18 12.2857 17.5523 12.2857 17V13.8095C12.2857 13.2033 12.0449 12.6219 11.6162 12.1933C11.1876 11.7646 10.6062 11.5238 10 11.5238C9.39379 11.5238 8.81241 11.7646 8.38376 12.1933C7.9551 12.6219 7.71429 13.2033 7.71429 13.8095V17"
                stroke="inherit" stroke-width="1.3" />
        </symbol>

        <symbol id="octagon" viewBox="0 0 20 20" fill="none">
            <path
                d="M17.5674 7.14987V12.8498C17.5674 13.7832 17.0674 14.6499 16.2591 15.1249L11.3091 17.9832C10.5008 18.4499 9.50078 18.4499 8.68412 17.9832L3.73411 15.1249C2.92578 14.6582 2.42578 13.7915 2.42578 12.8498V7.14987C2.42578 6.21653 2.92578 5.34983 3.73411 4.87483L8.68412 2.0165C9.49245 1.54984 10.4924 1.54984 11.3091 2.0165L16.2591 4.87483C17.0674 5.34983 17.5674 6.2082 17.5674 7.14987Z"
                stroke="inherit" stroke-width="1.5" stroke-linecap="round" stroke-linejoin="round" />
        </symbol>

        <symbol id="faq" viewBox="0 0 20 20" fill="none">
            <path
                d="M14.168 15.3583H10.8346L7.12629 17.8249C6.57629 18.1916 5.83464 17.8 5.83464 17.1333V15.3583C3.33464 15.3583 1.66797 13.6916 1.66797 11.1916V6.19157C1.66797 3.69157 3.33464 2.0249 5.83464 2.0249H14.168C16.668 2.0249 18.3346 3.69157 18.3346 6.19157V11.1916C18.3346 13.6916 16.668 15.3583 14.168 15.3583Z"
                stroke="inherit" stroke-width="1.5" stroke-miterlimit="10" stroke-linecap="round"
                stroke-linejoin="round" />
            <path
                d="M10.0005 9.4668V9.29183C10.0005 8.72516 10.3505 8.42515 10.7005 8.18348C11.0422 7.95015 11.3838 7.65016 11.3838 7.10016C11.3838 6.33349 10.7672 5.7168 10.0005 5.7168C9.23383 5.7168 8.61719 6.33349 8.61719 7.10016"
                stroke="inherit" stroke-width="1.5" stroke-linecap="round" stroke-linejoin="round" />
            <path d="M9.99495 11.4582H10.0024" stroke="inherit" stroke-width="1.5" stroke-linecap="round"
                stroke-linejoin="round" />
        </symbol>

        <symbol id="contacts" viewBox="0 0 20 20" fill="none">
            <mask id="path-1-outside-1_1_14889" maskUnits="userSpaceOnUse" x="1" y="1" width="18" height="17"
                fill="black">
                <rect fill="white" x="1" y="1" width="18" height="17" />
                <path
                    d="M13.1493 12.5337L13.5293 12.1562L12.6468 11.2696L12.2685 11.6471L13.1493 12.5337ZM14.8035 11.9979L16.396 12.8637L16.9918 11.7654L15.4001 10.9004L14.8035 11.9979ZM16.7018 14.5837L15.5185 15.7612L16.3993 16.6471L17.5826 15.4704L16.7018 14.5837ZM14.7968 16.1396C13.5885 16.2529 10.4635 16.1521 7.07848 12.7871L6.19681 13.6729C9.89014 17.3454 13.406 17.5254 14.9135 17.3846L14.7968 16.1396ZM7.07848 12.7871C3.85264 9.57873 3.31764 6.88123 3.25098 5.71039L2.00264 5.78123C2.08598 7.25456 2.74848 10.2446 6.19681 13.6729L7.07848 12.7871ZM8.22431 7.63706L8.46348 7.39873L7.58348 6.51289L7.34431 6.75039L8.22431 7.63706ZM8.65348 4.36956L7.60348 2.96623L6.60264 3.71623L7.65264 5.11873L8.65348 4.36956ZM4.06931 2.66039L2.76098 3.96039L3.64264 4.84706L4.95014 3.54706L4.06931 2.66039ZM7.78431 7.19373C7.34264 6.75039 7.34264 6.75039 7.34264 6.75206H7.34098L7.33848 6.75539C7.29888 6.79532 7.26342 6.83916 7.23264 6.88623C7.18764 6.95289 7.13848 7.04039 7.09681 7.15123C6.99537 7.43733 6.9701 7.7449 7.02348 8.04373C7.13514 8.76456 7.63181 9.71706 8.90348 10.9821L9.78514 10.0954C8.59431 8.91206 8.31098 8.19206 8.25848 7.85206C8.23348 7.69039 8.25931 7.61039 8.26681 7.59206C8.27181 7.58095 8.27181 7.57928 8.26681 7.58706C8.25938 7.59856 8.25102 7.60943 8.24181 7.61956L8.23348 7.62789L8.22514 7.63539L7.78431 7.19373ZM8.90348 10.9821C10.176 12.2471 11.1335 12.7404 11.8551 12.8504C12.2243 12.9071 12.5218 12.8621 12.7476 12.7779C12.8741 12.7316 12.9923 12.6652 13.0976 12.5812L13.1393 12.5437L13.1451 12.5387L13.1476 12.5362L13.1485 12.5346C13.1485 12.5346 13.1493 12.5337 12.7085 12.0904C12.2668 11.6471 12.2693 11.6462 12.2693 11.6462L12.271 11.6446L12.2726 11.6429L12.2776 11.6387L12.286 11.6304L12.3176 11.6054C12.3254 11.6004 12.3235 11.6009 12.3118 11.6071C12.291 11.6146 12.2093 11.6404 12.0451 11.6154C11.7001 11.5621 10.9751 11.2787 9.78514 10.0954L8.90348 10.9821ZM7.60348 2.96539C6.75348 1.83206 5.08348 1.65206 4.06931 2.66039L4.95014 3.54706C5.39348 3.10623 6.18014 3.15206 6.60264 3.71623L7.60348 2.96539ZM3.25181 5.71123C3.23514 5.42289 3.36764 5.12123 3.64264 4.84789L2.76014 3.96123C2.31264 4.40623 1.96014 5.03623 2.00264 5.78123L3.25181 5.71123ZM15.5185 15.7612C15.2901 15.9896 15.0435 16.1179 14.7976 16.1404L14.9135 17.3846C15.526 17.3271 16.0268 17.0187 16.4001 16.6479L15.5185 15.7612ZM8.46348 7.39873C9.28431 6.58289 9.34514 5.29373 8.65431 4.37039L7.65348 5.11956C7.98931 5.56873 7.93931 6.15789 7.58264 6.51373L8.46348 7.39873ZM16.3968 12.8646C17.0776 13.2346 17.1835 14.1062 16.7026 14.5846L17.5843 15.4704C18.701 14.3596 18.3568 12.5071 16.9926 11.7662L16.3968 12.8646ZM13.5293 12.1571C13.8493 11.8387 14.3643 11.7604 14.8043 11.9987L15.401 10.9012C14.4976 10.4096 13.3776 10.5454 12.6476 11.2704L13.5293 12.1571Z" />
            </mask>
            <path
                d="M13.1493 12.5337L13.5293 12.1562L12.6468 11.2696L12.2685 11.6471L13.1493 12.5337ZM14.8035 11.9979L16.396 12.8637L16.9918 11.7654L15.4001 10.9004L14.8035 11.9979ZM16.7018 14.5837L15.5185 15.7612L16.3993 16.6471L17.5826 15.4704L16.7018 14.5837ZM14.7968 16.1396C13.5885 16.2529 10.4635 16.1521 7.07848 12.7871L6.19681 13.6729C9.89014 17.3454 13.406 17.5254 14.9135 17.3846L14.7968 16.1396ZM7.07848 12.7871C3.85264 9.57873 3.31764 6.88123 3.25098 5.71039L2.00264 5.78123C2.08598 7.25456 2.74848 10.2446 6.19681 13.6729L7.07848 12.7871ZM8.22431 7.63706L8.46348 7.39873L7.58348 6.51289L7.34431 6.75039L8.22431 7.63706ZM8.65348 4.36956L7.60348 2.96623L6.60264 3.71623L7.65264 5.11873L8.65348 4.36956ZM4.06931 2.66039L2.76098 3.96039L3.64264 4.84706L4.95014 3.54706L4.06931 2.66039ZM7.78431 7.19373C7.34264 6.75039 7.34264 6.75039 7.34264 6.75206H7.34098L7.33848 6.75539C7.29888 6.79532 7.26342 6.83916 7.23264 6.88623C7.18764 6.95289 7.13848 7.04039 7.09681 7.15123C6.99537 7.43733 6.9701 7.7449 7.02348 8.04373C7.13514 8.76456 7.63181 9.71706 8.90348 10.9821L9.78514 10.0954C8.59431 8.91206 8.31098 8.19206 8.25848 7.85206C8.23348 7.69039 8.25931 7.61039 8.26681 7.59206C8.27181 7.58095 8.27181 7.57928 8.26681 7.58706C8.25938 7.59856 8.25102 7.60943 8.24181 7.61956L8.23348 7.62789L8.22514 7.63539L7.78431 7.19373ZM8.90348 10.9821C10.176 12.2471 11.1335 12.7404 11.8551 12.8504C12.2243 12.9071 12.5218 12.8621 12.7476 12.7779C12.8741 12.7316 12.9923 12.6652 13.0976 12.5812L13.1393 12.5437L13.1451 12.5387L13.1476 12.5362L13.1485 12.5346C13.1485 12.5346 13.1493 12.5337 12.7085 12.0904C12.2668 11.6471 12.2693 11.6462 12.2693 11.6462L12.271 11.6446L12.2726 11.6429L12.2776 11.6387L12.286 11.6304L12.3176 11.6054C12.3254 11.6004 12.3235 11.6009 12.3118 11.6071C12.291 11.6146 12.2093 11.6404 12.0451 11.6154C11.7001 11.5621 10.9751 11.2787 9.78514 10.0954L8.90348 10.9821ZM7.60348 2.96539C6.75348 1.83206 5.08348 1.65206 4.06931 2.66039L4.95014 3.54706C5.39348 3.10623 6.18014 3.15206 6.60264 3.71623L7.60348 2.96539ZM3.25181 5.71123C3.23514 5.42289 3.36764 5.12123 3.64264 4.84789L2.76014 3.96123C2.31264 4.40623 1.96014 5.03623 2.00264 5.78123L3.25181 5.71123ZM15.5185 15.7612C15.2901 15.9896 15.0435 16.1179 14.7976 16.1404L14.9135 17.3846C15.526 17.3271 16.0268 17.0187 16.4001 16.6479L15.5185 15.7612ZM8.46348 7.39873C9.28431 6.58289 9.34514 5.29373 8.65431 4.37039L7.65348 5.11956C7.98931 5.56873 7.93931 6.15789 7.58264 6.51373L8.46348 7.39873ZM16.3968 12.8646C17.0776 13.2346 17.1835 14.1062 16.7026 14.5846L17.5843 15.4704C18.701 14.3596 18.3568 12.5071 16.9926 11.7662L16.3968 12.8646ZM13.5293 12.1571C13.8493 11.8387 14.3643 11.7604 14.8043 11.9987L15.401 10.9012C14.4976 10.4096 13.3776 10.5454 12.6476 11.2704L13.5293 12.1571Z"
                fill="white" />
            <path
                d="M7.07848 12.7871L7.11397 12.8223L7.04304 12.7518L7.07848 12.7871ZM4.95014 3.54706L4.91472 3.58235L4.98562 3.51182L4.95014 3.54706ZM12.7085 12.0904L12.744 12.0552L12.304 11.6118L12.2685 11.6471L12.233 11.6823L12.673 12.1256L12.7085 12.0904ZM13.0885 11.7129L13.053 11.7481L13.4939 12.1915L13.5293 12.1562L13.5648 12.121L13.1239 11.6776L13.0885 11.7129ZM15.1026 11.4487L15.0587 11.4249L14.7604 11.9749L14.8043 11.9987L14.8483 12.0226L15.1466 11.4726L15.1026 11.4487ZM16.6943 12.3146L16.6504 12.2907L16.352 12.8399L16.396 12.8637L16.4399 12.8876L16.7382 12.3384L16.6943 12.3146ZM17.1435 15.0271L17.108 15.0623L17.5489 15.5056L17.5843 15.4704L17.6198 15.4351L17.1789 14.9918L17.1435 15.0271ZM15.9601 16.2037L15.9955 16.1684L15.5539 15.7259L15.5185 15.7612L15.4831 15.7965L15.9248 16.239L15.9601 16.2037ZM14.8551 16.7621L14.8054 16.7667L14.8637 17.3892L14.9135 17.3846L14.9633 17.3799L14.9049 16.7574L14.8551 16.7621ZM6.63848 13.2304L6.67397 13.2656L7.11397 12.8223L7.07848 12.7871L7.04299 12.7518L6.60299 13.1952L6.63848 13.2304ZM2.62681 5.74623L2.62401 5.6963L1.99985 5.7313L2.00264 5.78123L2.00544 5.83115L2.62961 5.79615L2.62681 5.74623ZM8.02181 6.95539L7.98639 6.99068L8.42806 7.43401L8.46348 7.39873L8.4989 7.36344L8.05723 6.9201L8.02181 6.95539ZM8.15264 4.74373L8.1826 4.78376L8.6826 4.40959L8.65264 4.36956L8.62269 4.32953L8.12269 4.70369L8.15264 4.74373ZM7.10348 3.34123L7.07351 3.3012L6.57268 3.6762L6.60264 3.71623L6.63261 3.75625L7.13345 3.38125L7.10348 3.34123ZM4.50848 3.10373L4.47306 3.13902L4.91472 3.58235L4.95014 3.54706L4.98557 3.51177L4.5439 3.06844L4.50848 3.10373ZM3.20014 4.40373L3.2356 4.36847L2.7956 3.92597L2.76014 3.96123L2.72469 3.99648L3.16469 4.43898L3.20014 4.40373ZM9.34348 10.5387L9.37893 10.574L9.81977 10.1306L9.78431 10.0954L9.74886 10.0601L9.30802 10.5035L9.34348 10.5387ZM7.07848 12.7871L7.04304 12.7518L6.16137 13.6376L6.19681 13.6729L6.23225 13.7082L7.11392 12.8223L7.07848 12.7871ZM4.95014 3.54706L4.98562 3.51182L4.10478 2.62515L4.06931 2.66039L4.03384 2.69563L4.91467 3.5823L4.95014 3.54706ZM8.90348 10.9821L8.93893 11.0173L9.8206 10.1306L9.78514 10.0954L9.74969 10.0601L8.86802 10.9468L8.90348 10.9821ZM12.7085 12.0904L12.7794 12.0199L12.7793 12.0198L12.7085 12.0904ZM12.2685 11.6471L12.1978 11.5763L12.1272 11.6467L12.1975 11.7175L12.2685 11.6471ZM13.5293 12.1562L13.5998 12.2272L13.6708 12.1566L13.6002 12.0857L13.5293 12.1562ZM14.8043 11.9987L14.7567 12.0867L14.8445 12.1342L14.8922 12.0465L14.8043 11.9987ZM16.396 12.8637L16.3482 12.9516L16.4361 12.9994L16.4839 12.9114L16.396 12.8637ZM17.5843 15.4704L17.5134 15.5409L17.584 15.6118L17.6548 15.5413L17.5843 15.4704ZM15.5185 15.7612L15.4479 15.6903L15.4478 15.6905L15.5185 15.7612ZM14.9135 17.3846L14.9228 17.4841L14.9228 17.4841L14.9135 17.3846ZM7.07848 12.7871L7.00796 12.858L7.00798 12.858L7.07848 12.7871ZM4.95014 3.54706L5.02065 3.61797L5.02065 3.61797L4.95014 3.54706ZM2.76014 3.96123L2.83102 3.89068L2.76051 3.81984L2.68963 3.89032L2.76014 3.96123ZM13.1493 12.5337L13.0784 12.6042L13.1488 12.6751L13.2198 12.6047L13.1493 12.5337ZM12.6468 11.2696L12.7177 11.199L12.6471 11.128L12.5762 11.1988L12.6468 11.2696ZM14.8035 11.9979L14.7156 11.9501L14.6679 12.038L14.7557 12.0857L14.8035 11.9979ZM16.9918 11.7654L17.0797 11.8131L17.1274 11.7252L17.0396 11.6775L16.9918 11.7654ZM15.4001 10.9004L15.4479 10.8125L15.36 10.7648L15.3123 10.8526L15.4001 10.9004ZM16.7018 14.5837L16.7728 14.5132L16.7022 14.4422L16.6313 14.5128L16.7018 14.5837ZM16.3993 16.6471L16.3284 16.7176L16.3989 16.7885L16.4698 16.718L16.3993 16.6471ZM17.5826 15.4704L17.6532 15.5413L17.724 15.4708L17.6536 15.3999L17.5826 15.4704ZM14.7968 16.1396L14.8964 16.1302L14.887 16.0307L14.7875 16.04L14.7968 16.1396ZM6.19681 13.6729L6.26732 13.602L6.26732 13.602L6.19681 13.6729ZM3.25098 5.71039L3.35082 5.70471L3.34513 5.60489L3.24531 5.61055L3.25098 5.71039ZM8.22431 7.63706L8.15333 7.7075L8.22392 7.77862L8.2949 7.70789L8.22431 7.63706ZM7.58348 6.51289L7.65442 6.44242L7.58396 6.37149L7.51301 6.44194L7.58348 6.51289ZM7.34431 6.75039L7.27385 6.67944L7.20291 6.74988L7.27333 6.82084L7.34431 6.75039ZM8.65348 4.36956L8.7134 4.44962L8.79344 4.3897L8.73355 4.30965L8.65348 4.36956ZM7.60348 2.96623L7.68355 2.90632L7.62359 2.82619L7.54351 2.8862L7.60348 2.96623ZM7.65264 5.11873L7.57259 5.17866L7.63252 5.2587L7.71257 5.19878L7.65264 5.11873ZM4.06931 2.66039L4.1398 2.73133L4.13982 2.73131L4.06931 2.66039ZM2.76098 3.96039L2.69049 3.88946L2.61953 3.95997L2.69007 4.0309L2.76098 3.96039ZM3.64264 4.84706L3.57173 4.91757L3.64224 4.98848L3.71315 4.91797L3.64264 4.84706ZM7.78431 7.19373L7.71347 7.2643L7.71353 7.26437L7.78431 7.19373ZM7.34264 6.75206V6.85206H7.44264V6.75206H7.34264ZM7.34098 6.75206V6.65206H7.29098L7.26098 6.69205L7.34098 6.75206ZM7.33848 6.75539L7.41016 6.82649L7.41847 6.8154L7.33848 6.75539ZM7.23264 6.88623L7.31554 6.94218L7.31635 6.94095L7.23264 6.88623ZM7.09681 7.15123L7.00319 7.11603L7.00256 7.11781L7.09681 7.15123ZM7.02348 8.04373L7.12233 8.02841L7.12192 8.02614L7.02348 8.04373ZM8.90348 10.9821L8.83295 11.053L8.83298 11.053L8.90348 10.9821ZM9.78514 10.0954L9.85566 10.0245L9.85563 10.0245L9.78514 10.0954ZM8.25848 7.85206L8.35731 7.8368L8.3573 7.83678L8.25848 7.85206ZM8.26681 7.59206L8.17556 7.551L8.17426 7.5542L8.26681 7.59206ZM8.26681 7.58706L8.35081 7.64133L8.35093 7.64114L8.26681 7.58706ZM8.24181 7.61956L8.3126 7.69035L8.31581 7.68683L8.24181 7.61956ZM8.23348 7.62789L8.30047 7.70232L8.30419 7.69861L8.23348 7.62789ZM8.22514 7.63539L8.15437 7.70604L8.22146 7.77325L8.29204 7.70972L8.22514 7.63539ZM11.8551 12.8504L11.8703 12.7516L11.8702 12.7515L11.8551 12.8504ZM12.7476 12.7779L12.7133 12.684L12.7127 12.6842L12.7476 12.7779ZM13.0976 12.5812L13.1601 12.6595L13.1645 12.6556L13.0976 12.5812ZM13.1393 12.5437L13.0742 12.4678L13.0724 12.4694L13.1393 12.5437ZM13.1451 12.5387L13.2104 12.6149L13.2159 12.6094L13.1451 12.5387ZM13.1476 12.5362L13.2184 12.6069L13.2298 12.5955L13.2371 12.5809L13.1476 12.5362ZM13.1485 12.5346L13.0778 12.4638L13.0663 12.4753L13.059 12.4899L13.1485 12.5346ZM12.2693 11.6462L12.3009 11.7411L12.3233 11.7336L12.34 11.7169L12.2693 11.6462ZM12.271 11.6446L12.3417 11.7153L12.3417 11.7153L12.271 11.6446ZM12.2726 11.6429L12.2084 11.5657L12.2019 11.5722L12.2726 11.6429ZM12.2776 11.6387L12.3419 11.7159L12.3484 11.7094L12.2776 11.6387ZM12.286 11.6304L12.2236 11.5514L12.2153 11.5597L12.286 11.6304ZM12.3176 11.6054L12.2633 11.5209L12.2557 11.5269L12.3176 11.6054ZM12.3118 11.6071L12.346 11.702L12.3582 11.6956L12.3118 11.6071ZM12.0451 11.6154L12.0299 11.7142L12.0301 11.7143L12.0451 11.6154ZM7.60348 2.96539L7.66349 3.04539L7.74347 2.98538L7.68348 2.90539L7.60348 2.96539ZM3.25181 5.71123L3.25741 5.81107L3.35743 5.80546L3.35164 5.70546L3.25181 5.71123ZM3.64264 4.84789L3.71314 4.91882L3.78411 4.84827L3.71352 4.77735L3.64264 4.84789ZM14.7976 16.1404L14.7885 16.0408L14.6888 16.0499L14.6981 16.1497L14.7976 16.1404ZM16.4001 16.6479L16.4706 16.7188L16.5416 16.6483L16.4711 16.5774L16.4001 16.6479ZM8.65431 4.37039L8.73438 4.31049L8.67446 4.2304L8.59439 4.29034L8.65431 4.37039ZM7.65348 5.11956L7.59355 5.0395L7.51354 5.0994L7.57339 5.17944L7.65348 5.11956ZM7.58264 6.51373L7.51202 6.44293L7.44131 6.51348L7.51177 6.58427L7.58264 6.51373ZM16.3968 12.8646L16.3089 12.8169L16.2613 12.9047L16.3491 12.9524L16.3968 12.8646ZM16.7026 14.5846L16.6321 14.5137L16.5612 14.5842L16.6318 14.6551L16.7026 14.5846ZM16.9926 11.7662L17.0404 11.6783L16.9524 11.6306L16.9047 11.7185L16.9926 11.7662ZM13.5293 12.1571L13.4584 12.2276L13.5289 12.2985L13.5998 12.228L13.5293 12.1571ZM15.401 10.9012L15.4888 10.949L15.5366 10.8612L15.4488 10.8134L15.401 10.9012ZM12.6476 11.2704L12.5772 11.1994L12.5062 11.2699L12.5767 11.3409L12.6476 11.2704ZM13.1493 12.5337L13.2198 12.6047L13.5998 12.2272L13.5293 12.1562L13.4588 12.0853L13.0788 12.4628L13.1493 12.5337ZM13.5293 12.1562L13.6002 12.0857L12.7177 11.199L12.6468 11.2696L12.5759 11.3401L13.4584 12.2268L13.5293 12.1562ZM12.6468 11.2696L12.5762 11.1988L12.1978 11.5763L12.2685 11.6471L12.3391 11.7178L12.7174 11.3403L12.6468 11.2696ZM12.2685 11.6471L12.1975 11.7175L13.0784 12.6042L13.1493 12.5337L13.2203 12.4632L12.3394 11.5766L12.2685 11.6471ZM14.8035 11.9979L14.7557 12.0857L16.3482 12.9516L16.396 12.8637L16.4437 12.7759L14.8512 11.91L14.8035 11.9979ZM16.396 12.8637L16.4839 12.9114L17.0797 11.8131L16.9918 11.7654L16.9039 11.7177L16.3081 12.816L16.396 12.8637ZM16.9918 11.7654L17.0396 11.6775L15.4479 10.8125L15.4001 10.9004L15.3524 10.9883L16.9441 11.8533L16.9918 11.7654ZM15.4001 10.9004L15.3123 10.8526L14.7156 11.9501L14.8035 11.9979L14.8913 12.0457L15.488 10.9482L15.4001 10.9004ZM16.7018 14.5837L16.6313 14.5128L15.4479 15.6903L15.5185 15.7612L15.589 15.8321L16.7723 14.6546L16.7018 14.5837ZM15.5185 15.7612L15.4476 15.8317L16.3284 16.7176L16.3993 16.6471L16.4702 16.5765L15.5894 15.6907L15.5185 15.7612ZM16.3993 16.6471L16.4698 16.718L17.6532 15.5413L17.5826 15.4704L17.5121 15.3995L16.3288 16.5761L16.3993 16.6471ZM17.5826 15.4704L17.6536 15.3999L16.7728 14.5132L16.7018 14.5837L16.6309 14.6542L17.5117 15.5409L17.5826 15.4704ZM14.7968 16.1396L14.7875 16.04C13.6032 16.1511 10.5093 16.0566 7.14898 12.7161L7.07848 12.7871L7.00798 12.858C10.4176 16.2475 13.5738 16.3547 14.8062 16.2391L14.7968 16.1396ZM6.19681 13.6729L6.1263 13.7438C9.84435 17.4409 13.3913 17.6272 14.9228 17.4841L14.9135 17.3846L14.9042 17.285C13.4206 17.4236 9.93594 17.2499 6.26732 13.602L6.19681 13.6729ZM14.9135 17.3846L15.013 17.3752L14.8964 16.1302L14.7968 16.1396L14.6972 16.1489L14.8139 17.3939L14.9135 17.3846ZM7.07848 12.7871L7.149 12.7162C3.94091 9.52548 3.4161 6.85132 3.35082 5.70471L3.25098 5.71039L3.15114 5.71608C3.21919 6.91113 3.76438 9.63198 7.00796 12.858L7.07848 12.7871ZM3.25098 5.71039L3.24531 5.61055L1.99698 5.68139L2.00264 5.78123L2.00831 5.88107L3.25664 5.81023L3.25098 5.71039ZM2.00264 5.78123L1.9028 5.78687C1.98751 7.28446 2.66021 10.2978 6.12631 13.7438L6.19681 13.6729L6.26732 13.602C2.83674 10.1913 2.18445 7.22466 2.10248 5.77558L2.00264 5.78123ZM8.22431 7.63706L8.2949 7.70789L8.53406 7.46956L8.46348 7.39873L8.39289 7.32789L8.15372 7.56623L8.22431 7.63706ZM8.46348 7.39873L8.53442 7.32825L7.65442 6.44242L7.58348 6.51289L7.51253 6.58337L8.39253 7.4692L8.46348 7.39873ZM7.58348 6.51289L7.51301 6.44194L7.27385 6.67944L7.34431 6.75039L7.41477 6.82135L7.65394 6.58385L7.58348 6.51289ZM7.34431 6.75039L7.27333 6.82084L8.15333 7.7075L8.22431 7.63706L8.29529 7.56662L7.41529 6.67995L7.34431 6.75039ZM8.65348 4.36956L8.73355 4.30965L7.68355 2.90632L7.60348 2.96623L7.52341 3.02614L8.57341 4.42947L8.65348 4.36956ZM7.60348 2.96623L7.54351 2.8862L6.54268 3.6362L6.60264 3.71623L6.66261 3.79625L7.66345 3.04625L7.60348 2.96623ZM6.60264 3.71623L6.52259 3.77616L7.57259 5.17866L7.65264 5.11873L7.7327 5.05879L6.6827 3.65629L6.60264 3.71623ZM7.65264 5.11873L7.71257 5.19878L8.7134 4.44962L8.65348 4.36956L8.59355 4.2895L7.59272 5.03867L7.65264 5.11873ZM4.06931 2.66039L3.99883 2.58946L2.69049 3.88946L2.76098 3.96039L2.83146 4.03133L4.1398 2.73133L4.06931 2.66039ZM2.76098 3.96039L2.69007 4.0309L3.57173 4.91757L3.64264 4.84706L3.71355 4.77655L2.83189 3.88988L2.76098 3.96039ZM3.64264 4.84706L3.71315 4.91797L5.02065 3.61797L4.95014 3.54706L4.87964 3.47615L3.57214 4.77615L3.64264 4.84706ZM7.78431 7.19373L7.85515 7.12315C7.63437 6.90153 7.52386 6.7906 7.46856 6.73531C7.44112 6.70786 7.42673 6.69357 7.41916 6.68624C7.41645 6.68361 7.4116 6.67888 7.40686 6.67501C7.40548 6.67388 7.40212 6.67115 7.39757 6.6682C7.39654 6.66752 7.38094 6.65659 7.35804 6.65305C7.34414 6.6509 7.31965 6.65027 7.29407 6.6645C7.26767 6.67918 7.25489 6.70143 7.24922 6.7163C7.24409 6.72976 7.24317 6.74109 7.2429 6.74485C7.24272 6.74732 7.24268 6.7493 7.24266 6.75035C7.24265 6.75091 7.24265 6.75136 7.24265 6.75163C7.24265 6.75174 7.24264 6.75189 7.24264 6.75195C7.24264 6.752 7.24264 6.75206 7.24264 6.75206H7.34264H7.44264C7.44264 6.7512 7.44269 6.75491 7.44239 6.75912C7.44213 6.76283 7.44122 6.77412 7.4361 6.78755C7.43044 6.80237 7.41768 6.8246 7.39131 6.83927C7.36577 6.85348 7.34131 6.85284 7.32746 6.8507C7.30467 6.84717 7.28924 6.83632 7.28844 6.8358C7.28414 6.833 7.2811 6.83052 7.28015 6.82975C7.27714 6.82728 7.27574 6.82575 7.27993 6.82981C7.28617 6.83586 7.29938 6.84897 7.32714 6.87673C7.38226 6.93185 7.49258 7.04259 7.71347 7.2643L7.78431 7.19373ZM7.34264 6.75206V6.65206H7.34098V6.75206V6.85206H7.34264V6.75206ZM7.34098 6.75206L7.26098 6.69205L7.25848 6.69539L7.33848 6.75539L7.41847 6.8154L7.42097 6.81207L7.34098 6.75206ZM7.33848 6.75539L7.26748 6.68497C7.22312 6.72969 7.18341 6.77879 7.14894 6.83151L7.23264 6.88623L7.31635 6.94095C7.34343 6.89952 7.37463 6.86095 7.40948 6.82581L7.33848 6.75539ZM7.23264 6.88623L7.14976 6.83028C7.1009 6.90266 7.04793 6.99708 7.00321 7.11604L7.09681 7.15123L7.19042 7.18642C7.22903 7.08371 7.27439 7.00312 7.31553 6.94217L7.23264 6.88623ZM7.09681 7.15123L7.00256 7.11781C6.89533 7.42026 6.86861 7.74541 6.92504 8.06131L7.02348 8.04373L7.12192 8.02614C7.07159 7.74439 7.09542 7.4544 7.19106 7.18464L7.09681 7.15123ZM7.02348 8.04373L6.92466 8.05904C7.04105 8.81041 7.55478 9.78148 8.83295 11.053L8.90348 10.9821L8.974 10.9112C7.70884 9.65264 7.22923 8.71871 7.1223 8.02842L7.02348 8.04373ZM9.78514 10.0954L9.85563 10.0245C8.67134 8.84763 8.40509 8.14622 8.35731 7.8368L8.25848 7.85206L8.15965 7.86732C8.21687 8.2379 8.51728 8.97649 9.71466 10.1663L9.78514 10.0954ZM8.25848 7.85206L8.3573 7.83678C8.3347 7.69063 8.35962 7.62929 8.35937 7.62992L8.26681 7.59206L8.17426 7.5542C8.159 7.59149 8.13225 7.69016 8.15965 7.86734L8.25848 7.85206ZM8.26681 7.59206L8.358 7.6331C8.3595 7.62977 8.36123 7.62583 8.36275 7.62194C8.36347 7.6201 8.36467 7.61695 8.36583 7.61318C8.36642 7.61131 8.36733 7.6082 8.36818 7.60434C8.3688 7.60152 8.37056 7.59321 8.37056 7.58248C8.37056 7.57711 8.37016 7.56681 8.36658 7.55447C8.36306 7.54233 8.35419 7.52068 8.3319 7.50334C8.28004 7.463 8.22711 7.49191 8.22176 7.49488C8.20937 7.50176 8.20143 7.50972 8.19932 7.51182C8.19602 7.51512 8.19358 7.51802 8.19223 7.51967C8.18763 7.52529 8.18401 7.53093 8.18269 7.53298L8.26681 7.58706L8.35093 7.64114C8.35211 7.6393 8.35036 7.64223 8.34702 7.64632C8.34598 7.64759 8.34381 7.65018 8.34074 7.65325C8.33888 7.65511 8.33113 7.66291 8.31889 7.66971C8.3137 7.67259 8.26089 7.70149 8.20911 7.66121C8.18685 7.6439 8.17802 7.62229 8.17451 7.61023C8.17095 7.59795 8.17056 7.58774 8.17056 7.58248C8.17056 7.57195 8.17229 7.56393 8.17283 7.56146C8.1736 7.55796 8.1744 7.55528 8.17482 7.5539C8.17568 7.55115 8.1764 7.5493 8.1765 7.54906C8.17677 7.54836 8.17662 7.54879 8.17562 7.55102L8.26681 7.59206ZM8.26681 7.58706L8.18282 7.53279C8.17836 7.53969 8.17334 7.54621 8.16782 7.55229L8.24181 7.61956L8.31581 7.68683C8.3287 7.67264 8.3404 7.65743 8.35081 7.64133L8.26681 7.58706ZM8.24181 7.61956L8.1711 7.54885L8.16277 7.55718L8.23348 7.62789L8.30419 7.69861L8.31252 7.69027L8.24181 7.61956ZM8.23348 7.62789L8.16658 7.55357L8.15825 7.56106L8.22514 7.63539L8.29204 7.70972L8.30038 7.70222L8.23348 7.62789ZM8.22514 7.63539L8.29592 7.56475L7.85509 7.12308L7.78431 7.19373L7.71353 7.26437L8.15437 7.70604L8.22514 7.63539ZM8.90348 10.9821L8.83298 11.053C10.112 12.3245 11.0881 12.8346 11.8401 12.9493L11.8551 12.8504L11.8702 12.7515C11.1789 12.6462 10.2399 12.1696 8.97398 10.9111L8.90348 10.9821ZM11.8551 12.8504L11.84 12.9492C12.2255 13.0084 12.5403 12.9619 12.7826 12.8716L12.7476 12.7779L12.7127 12.6842C12.5034 12.7622 12.2231 12.8057 11.8703 12.7516L11.8551 12.8504ZM12.7476 12.7779L12.782 12.8718C12.9186 12.8218 13.0463 12.7501 13.16 12.6594L13.0976 12.5812L13.0353 12.503C12.9384 12.5803 12.8297 12.6414 12.7133 12.684L12.7476 12.7779ZM13.0976 12.5812L13.1645 12.6556L13.2062 12.6181L13.1393 12.5437L13.0724 12.4694L13.0307 12.5069L13.0976 12.5812ZM13.1393 12.5437L13.2044 12.6197L13.2102 12.6147L13.1451 12.5387L13.0801 12.4628L13.0742 12.4678L13.1393 12.5437ZM13.1451 12.5387L13.2159 12.6094L13.2184 12.6069L13.1476 12.5362L13.0769 12.4655L13.0744 12.468L13.1451 12.5387ZM13.1476 12.5362L13.2371 12.5809L13.2379 12.5793L13.1485 12.5346L13.059 12.4899L13.0582 12.4915L13.1476 12.5362ZM13.1485 12.5346C13.2192 12.6053 13.2339 12.5865 13.2438 12.5648C13.2455 12.5587 13.2481 12.5427 13.2485 12.5327C13.2482 12.5177 13.2445 12.5063 13.2429 12.5015C13.2393 12.4914 13.2349 12.4842 13.2338 12.4823C13.2306 12.4772 13.2277 12.4735 13.2271 12.4727C13.2252 12.4703 13.2235 12.4684 13.2232 12.468C13.222 12.4668 13.221 12.4657 13.2204 12.465C13.219 12.4636 13.2169 12.4614 13.2134 12.4578C13.2063 12.4505 13.1925 12.4363 13.165 12.4085C13.1099 12.3527 12.9998 12.2416 12.7794 12.0199L12.7085 12.0904L12.6376 12.1609C12.858 12.3826 12.9679 12.4935 13.0226 12.549C13.05 12.5767 13.0635 12.5905 13.07 12.5972C13.0733 12.6006 13.0746 12.602 13.0749 12.6023C13.0752 12.6026 13.0745 12.6019 13.0736 12.6008C13.0734 12.6006 13.0718 12.5988 13.0699 12.5963C13.0693 12.5956 13.0663 12.5919 13.0632 12.5868C13.0621 12.5849 13.0576 12.5777 13.0541 12.5676C13.0524 12.5628 13.0488 12.5514 13.0485 12.5364C13.0488 12.5264 13.0514 12.5104 13.0532 12.5043C13.063 12.4826 13.0778 12.4638 13.1485 12.5346ZM12.7085 12.0904L12.7793 12.0198C12.5585 11.7982 12.449 11.6874 12.3946 11.632C12.3674 11.6043 12.3544 11.5908 12.3483 11.5843C12.3451 11.581 12.3443 11.5802 12.3446 11.5805C12.3448 11.5806 12.3451 11.581 12.3456 11.5816C12.346 11.5821 12.3469 11.5832 12.3481 11.5847C12.3486 11.5853 12.3522 11.5898 12.3559 11.5961C12.3568 11.5978 12.3632 11.6085 12.3667 11.6237C12.3684 11.6308 12.3723 11.6505 12.3652 11.6745C12.3613 11.6878 12.354 11.7024 12.3415 11.7155C12.3352 11.7214 12.3251 11.7292 12.3216 11.7315C12.3115 11.7369 12.3009 11.7411 12.2693 11.6462C12.2377 11.5514 12.2271 11.5556 12.2171 11.561C12.2135 11.5632 12.2034 11.571 12.1972 11.577C12.1847 11.59 12.1773 11.6047 12.1734 11.6179C12.1663 11.6419 12.1702 11.6616 12.1719 11.6687C12.1754 11.684 12.1818 11.6947 12.1828 11.6964C12.1865 11.7027 12.1901 11.7073 12.1907 11.708C12.1928 11.7108 12.1948 11.713 12.1955 11.7138C12.1974 11.7159 12.1999 11.7186 12.2034 11.7222C12.2106 11.7298 12.2245 11.7442 12.2519 11.7721C12.3068 11.828 12.4168 11.9393 12.6376 12.161L12.7085 12.0904ZM12.2693 11.6462L12.34 11.7169L12.3417 11.7153L12.271 11.6446L12.2003 11.5738L12.1986 11.5755L12.2693 11.6462ZM12.271 11.6446L12.3417 11.7153L12.3434 11.7136L12.2726 11.6429L12.2019 11.5722L12.2002 11.5739L12.271 11.6446ZM12.2726 11.6429L12.3367 11.7197L12.3417 11.7156L12.2776 11.6387L12.2136 11.5619L12.2086 11.5661L12.2726 11.6429ZM12.2776 11.6387L12.3484 11.7094L12.3567 11.7011L12.286 11.6304L12.2153 11.5597L12.2069 11.568L12.2776 11.6387ZM12.286 11.6304L12.3479 11.7089L12.3796 11.6839L12.3176 11.6054L12.2557 11.5269L12.224 11.5519L12.286 11.6304ZM12.3176 11.6054L12.3717 11.6895C12.3735 11.6883 12.378 11.6855 12.3823 11.6822C12.3835 11.6813 12.386 11.6794 12.3889 11.6767C12.3891 11.6766 12.4 11.6674 12.4087 11.6525C12.4111 11.6483 12.4294 11.6182 12.4193 11.5778C12.4056 11.5229 12.3583 11.5071 12.341 11.5038C12.324 11.5005 12.3104 11.5026 12.3068 11.5032C12.3012 11.5041 12.2968 11.5053 12.2945 11.5059C12.2869 11.5081 12.2809 11.5109 12.2802 11.5111C12.2781 11.5121 12.2762 11.513 12.2748 11.5137C12.2719 11.5151 12.2686 11.5168 12.2654 11.5185L12.3118 11.6071L12.3582 11.6956C12.3608 11.6943 12.3622 11.6936 12.3627 11.6933C12.3671 11.6912 12.3594 11.6954 12.3495 11.6982C12.3473 11.6988 12.3431 11.7 12.3376 11.7008C12.334 11.7014 12.3205 11.7035 12.3036 11.7003C12.2863 11.697 12.239 11.6812 12.2253 11.6263C12.2152 11.586 12.2335 11.5559 12.2359 11.5517C12.2412 11.5426 12.2467 11.5365 12.2489 11.5342C12.2516 11.5313 12.2539 11.5292 12.2553 11.5279C12.258 11.5255 12.2602 11.5238 12.261 11.5231C12.2639 11.521 12.2656 11.52 12.2636 11.5213L12.3176 11.6054ZM12.3118 11.6071L12.2779 11.513C12.2727 11.5149 12.2078 11.539 12.0602 11.5165L12.0451 11.6154L12.0301 11.7143C12.2108 11.7418 12.3093 11.7143 12.3457 11.7011L12.3118 11.6071ZM12.0451 11.6154L12.0604 11.5166C11.7456 11.4679 11.039 11.2012 9.85566 10.0245L9.78514 10.0954L9.71463 10.1663C10.9113 11.3562 11.6547 11.6562 12.0299 11.7142L12.0451 11.6154ZM7.60348 2.96539L7.68348 2.90539C6.79956 1.72684 5.05898 1.53541 3.9988 2.58948L4.06931 2.66039L4.13982 2.73131C5.10798 1.76871 6.7074 1.93728 7.52348 3.02539L7.60348 2.96539ZM4.95014 3.54706L5.02065 3.61797C5.41872 3.22215 6.13467 3.25816 6.5226 3.77617L6.60264 3.71623L6.68269 3.65628C6.22562 3.04596 5.36824 2.9903 4.87963 3.47615L4.95014 3.54706ZM6.60264 3.71623L6.66265 3.79622L7.66349 3.04539L7.60348 2.96539L7.54347 2.8854L6.54263 3.63623L6.60264 3.71623ZM3.25181 5.71123L3.35164 5.70546C3.33708 5.45348 3.45218 5.17819 3.71314 4.91882L3.64264 4.84789L3.57215 4.77697C3.28311 5.06426 3.13321 5.39231 3.15198 5.717L3.25181 5.71123ZM3.64264 4.84789L3.71352 4.77735L2.83102 3.89068L2.76014 3.96123L2.68927 4.03177L3.57177 4.91844L3.64264 4.84789ZM2.76014 3.96123L2.68963 3.89032C2.22846 4.34891 1.85821 5.00523 1.90281 5.78692L2.00264 5.78123L2.10248 5.77553C2.06208 5.06723 2.39683 4.46354 2.83066 4.03213L2.76014 3.96123ZM2.00264 5.78123L2.00824 5.88107L3.25741 5.81107L3.25181 5.71123L3.24622 5.61138L1.99705 5.68138L2.00264 5.78123ZM15.5185 15.7612L15.4478 15.6905C15.2312 15.9071 15.0052 16.021 14.7885 16.0408L14.7976 16.1404L14.8068 16.24C15.0818 16.2148 15.3491 16.072 15.5892 15.8319L15.5185 15.7612ZM14.7976 16.1404L14.6981 16.1497L14.8139 17.3938L14.9135 17.3846L15.013 17.3753L14.8972 16.1311L14.7976 16.1404ZM14.9135 17.3846L14.9228 17.4841C15.5645 17.4239 16.0858 17.1011 16.4706 16.7188L16.4001 16.6479L16.3297 16.5769C15.9678 16.9364 15.4875 17.2302 14.9041 17.285L14.9135 17.3846ZM16.4001 16.6479L16.4711 16.5774L15.5894 15.6907L15.5185 15.7612L15.4476 15.8317L16.3292 16.7184L16.4001 16.6479ZM8.46348 7.39873L8.53397 7.46965C9.39199 6.61686 9.45349 5.27161 8.73438 4.31049L8.65431 4.37039L8.57424 4.4303C9.2368 5.31584 9.17663 6.54893 8.39298 7.3278L8.46348 7.39873ZM8.65431 4.37039L8.59439 4.29034L7.59355 5.0395L7.65348 5.11956L7.7134 5.19962L8.71424 4.45045L8.65431 4.37039ZM7.65348 5.11956L7.57339 5.17944C7.88065 5.59039 7.83204 6.12365 7.51202 6.44293L7.58264 6.51373L7.65327 6.58452C8.04658 6.19213 8.09798 5.54707 7.73357 5.05968L7.65348 5.11956ZM7.58264 6.51373L7.51177 6.58427L8.3926 7.46927L8.46348 7.39873L8.53435 7.32818L7.65352 6.44318L7.58264 6.51373ZM16.3968 12.8646L16.3491 12.9524C16.974 13.2921 17.0631 14.0849 16.6321 14.5137L16.7026 14.5846L16.7732 14.6555C17.3038 14.1276 17.1812 13.177 16.4446 12.7767L16.3968 12.8646ZM16.7026 14.5846L16.6318 14.6551L17.5134 15.5409L17.5843 15.4704L17.6552 15.3998L16.7735 14.514L16.7026 14.5846ZM17.5843 15.4704L17.6548 15.5413C18.8228 14.3795 18.4586 12.4485 17.0404 11.6783L16.9926 11.7662L16.9449 11.8541C18.255 12.5656 18.5792 14.3397 17.5138 15.3995L17.5843 15.4704ZM16.9926 11.7662L16.9047 11.7185L16.3089 12.8169L16.3968 12.8646L16.4847 12.9122L17.0805 11.8139L16.9926 11.7662ZM13.5293 12.1571L13.5998 12.228C13.8872 11.9421 14.3538 11.8684 14.7567 12.0867L14.8043 11.9987L14.8519 11.9108C14.3748 11.6524 13.8115 11.7353 13.4588 12.0862L13.5293 12.1571ZM14.8043 11.9987L14.8922 12.0465L15.4888 10.949L15.401 10.9012L15.3131 10.8535L14.7165 11.951L14.8043 11.9987ZM15.401 10.9012L15.4488 10.8134C14.5084 10.3016 13.34 10.4419 12.5772 11.1994L12.6476 11.2704L12.7181 11.3413C13.4153 10.6489 14.4869 10.5176 15.3532 10.9891L15.401 10.9012ZM12.6476 11.2704L12.5767 11.3409L13.4584 12.2276L13.5293 12.1571L13.6002 12.0865L12.7186 11.1999L12.6476 11.2704Z"
                fill="white" mask="url(#path-1-outside-1_1_14889)" />
        </symbol>
    </defs>
</svg>